<svg width="20" height="20" viewBox="0 0 20 20" fill="none" xmlns="http://www.w3.org/2000/svg">
<path d="M16.6419 8.33337H3.30859V15C3.30859 17.5 4.14193 18.3334 6.64193 18.3334H13.3086C15.8086 18.3334 16.6419 17.5 16.6419 15V8.33337Z" stroke="white" stroke-width="1.5" stroke-miterlimit="10" stroke-linecap="round" stroke-linejoin="round"/>
<path d="M17.9154 5.83329V6.66663C17.9154 7.58329 17.4737 8.33329 16.2487 8.33329H3.7487C2.4737 8.33329 2.08203 7.58329 2.08203 6.66663V5.83329C2.08203 4.91663 2.4737 4.16663 3.7487 4.16663H16.2487C17.4737 4.16663 17.9154 4.91663 17.9154 5.83329Z" stroke="white" stroke-width="1.5" stroke-miterlimit="10" stroke-linecap="round" stroke-linejoin="round"/>
<path d="M9.70096 4.16662H5.10096C4.81763 3.85828 4.82596 3.38328 5.12596 3.08328L6.30929 1.89995C6.61763 1.59162 7.12596 1.59162 7.43429 1.89995L9.70096 4.16662Z" stroke="white" stroke-width="1.5" stroke-miterlimit="10" stroke-linecap="round" stroke-linejoin="round"/>
<path d="M14.893 4.16662H10.293L12.5596 1.89995C12.868 1.59162 13.3763 1.59162 13.6846 1.89995L14.868 3.08328C15.168 3.38328 15.1763 3.85828 14.893 4.16662Z" stroke="white" stroke-width="1.5" stroke-miterlimit="10" stroke-linecap="round" stroke-linejoin="round"/>
<path d="M7.44922 8.33337V12.6167C7.44922 13.2834 8.18255 13.675 8.74089 13.3167L9.52422 12.8C9.80755 12.6167 10.1659 12.6167 10.4409 12.8L11.1826 13.3C11.7326 13.6667 12.4742 13.275 12.4742 12.6084V8.33337H7.44922Z" stroke="white" stroke-width="1.5" stroke-miterlimit="10" stroke-linecap="round" stroke-linejoin="round"/>
</svg>
