<svg width="263" height="272" viewBox="0 0 263 272" fill="none" xmlns="http://www.w3.org/2000/svg">
<g opacity="0.16" clip-path="url(#clip0_1053_10164)">
<circle cx="68" cy="5" r="5" fill="#2DD06E"/>
<circle cx="88" cy="5" r="5" fill="#2DD06E"/>
<circle cx="108" cy="5" r="5" fill="#2DD06E"/>
<circle cx="128" cy="5" r="5" fill="#2DD06E"/>
<circle cx="148" cy="5" r="5" fill="#2DD06E"/>
<circle cx="168" cy="5" r="5" fill="#2DD06E"/>
<circle cx="188" cy="5" r="5" fill="#2DD06E"/>
<circle cx="208" cy="5" r="5" fill="#2DD06E"/>
<circle cx="228" cy="5" r="5" fill="#2DD06E"/>
<circle cx="248" cy="5" r="5" fill="#2DD06E"/>
<circle cx="68" cy="25" r="5" fill="#2DD06E"/>
<circle cx="88" cy="25" r="5" fill="#2DD06E"/>
<circle cx="108" cy="25" r="5" fill="#2DD06E"/>
<circle cx="128" cy="25" r="5" fill="#2DD06E"/>
<circle cx="148" cy="25" r="5" fill="#2DD06E"/>
<circle cx="168" cy="25" r="5" fill="#2DD06E"/>
<circle cx="188" cy="25" r="5" fill="#2DD06E"/>
<circle cx="208" cy="25" r="5" fill="#2DD06E"/>
<circle cx="228" cy="25" r="5" fill="#2DD06E"/>
<circle cx="248" cy="25" r="5" fill="#2DD06E"/>
<circle cx="68" cy="45" r="5" fill="#2DD06E"/>
<circle cx="88" cy="45" r="5" fill="#2DD06E"/>
<circle cx="108" cy="45" r="5" fill="#2DD06E"/>
<circle cx="128" cy="45" r="5" fill="#2DD06E"/>
<circle cx="148" cy="45" r="5" fill="#2DD06E"/>
<circle cx="168" cy="45" r="5" fill="#2DD06E"/>
<circle cx="188" cy="45" r="5" fill="#2DD06E"/>
<circle cx="208" cy="45" r="5" fill="#2DD06E"/>
<circle cx="228" cy="45" r="5" fill="#2DD06E"/>
<circle cx="248" cy="45" r="5" fill="#2DD06E"/>
<circle cx="68" cy="65" r="5" fill="#2DD06E"/>
<circle cx="88" cy="65" r="5" fill="#2DD06E"/>
<circle cx="108" cy="65" r="5" fill="#2DD06E"/>
<circle cx="128" cy="65" r="5" fill="#2DD06E"/>
<circle cx="148" cy="65" r="5" fill="#2DD06E"/>
<circle cx="168" cy="65" r="5" fill="#2DD06E"/>
<circle cx="188" cy="65" r="5" fill="#2DD06E"/>
<circle cx="208" cy="65" r="5" fill="#2DD06E"/>
<circle cx="228" cy="65" r="5" fill="#2DD06E"/>
<circle cx="248" cy="65" r="5" fill="#2DD06E"/>
<circle cx="68" cy="85" r="5" fill="#2DD06E"/>
<circle cx="88" cy="85" r="5" fill="#2DD06E"/>
<circle cx="108" cy="85" r="5" fill="#2DD06E"/>
<circle cx="128" cy="85" r="5" fill="#2DD06E"/>
<circle cx="148" cy="85" r="5" fill="#2DD06E"/>
<circle cx="168" cy="85" r="5" fill="#2DD06E"/>
<circle cx="188" cy="85" r="5" fill="#2DD06E"/>
<circle cx="208" cy="85" r="5" fill="#2DD06E"/>
<circle cx="228" cy="85" r="5" fill="#2DD06E"/>
<circle cx="248" cy="85" r="5" fill="#2DD06E"/>
<circle cx="68" cy="105" r="5" fill="#2DD06E"/>
<circle cx="88" cy="105" r="5" fill="#2DD06E"/>
<circle cx="108" cy="105" r="5" fill="#2DD06E"/>
<circle cx="128" cy="105" r="5" fill="#2DD06E"/>
<circle cx="148" cy="105" r="5" fill="#2DD06E"/>
<circle cx="168" cy="105" r="5" fill="#2DD06E"/>
<circle cx="188" cy="105" r="5" fill="#2DD06E"/>
<circle cx="208" cy="105" r="5" fill="#2DD06E"/>
<circle cx="228" cy="105" r="5" fill="#2DD06E"/>
<circle cx="248" cy="105" r="5" fill="#2DD06E"/>
<circle cx="68" cy="125" r="5" fill="#2DD06E"/>
<circle cx="88" cy="125" r="5" fill="#2DD06E"/>
<circle cx="108" cy="125" r="5" fill="#2DD06E"/>
<circle cx="128" cy="125" r="5" fill="#2DD06E"/>
<circle cx="148" cy="125" r="5" fill="#2DD06E"/>
<circle cx="168" cy="125" r="5" fill="#2DD06E"/>
<circle cx="188" cy="125" r="5" fill="#2DD06E"/>
<circle cx="208" cy="125" r="5" fill="#2DD06E"/>
<circle cx="228" cy="125" r="5" fill="#2DD06E"/>
<circle cx="248" cy="125" r="5" fill="#2DD06E"/>
<circle cx="68" cy="145" r="5" fill="#2DD06E"/>
<circle cx="88" cy="145" r="5" fill="#2DD06E"/>
<circle cx="108" cy="145" r="5" fill="#2DD06E"/>
<circle cx="128" cy="145" r="5" fill="#2DD06E"/>
<circle cx="148" cy="145" r="5" fill="#2DD06E"/>
<circle cx="168" cy="145" r="5" fill="#2DD06E"/>
<circle cx="188" cy="145" r="5" fill="#2DD06E"/>
<circle cx="208" cy="145" r="5" fill="#2DD06E"/>
<circle cx="228" cy="145" r="5" fill="#2DD06E"/>
<circle cx="248" cy="145" r="5" fill="#2DD06E"/>
<circle cx="68" cy="165" r="5" fill="#2DD06E"/>
<circle cx="88" cy="165" r="5" fill="#2DD06E"/>
<circle cx="108" cy="165" r="5" fill="#2DD06E"/>
<circle cx="128" cy="165" r="5" fill="#2DD06E"/>
<circle cx="148" cy="165" r="5" fill="#2DD06E"/>
<circle cx="168" cy="165" r="5" fill="#2DD06E"/>
<circle cx="188" cy="165" r="5" fill="#2DD06E"/>
<circle cx="208" cy="165" r="5" fill="#2DD06E"/>
<circle cx="228" cy="165" r="5" fill="#2DD06E"/>
<circle cx="248" cy="165" r="5" fill="#2DD06E"/>
<circle cx="68" cy="185" r="5" fill="#2DD06E"/>
<circle cx="88" cy="185" r="5" fill="#2DD06E"/>
<circle cx="108" cy="185" r="5" fill="#2DD06E"/>
<circle cx="128" cy="185" r="5" fill="#2DD06E"/>
<circle cx="148" cy="185" r="5" fill="#2DD06E"/>
<circle cx="168" cy="185" r="5" fill="#2DD06E"/>
<circle cx="188" cy="185" r="5" fill="#2DD06E"/>
<circle cx="208" cy="185" r="5" fill="#2DD06E"/>
<circle cx="228" cy="185" r="5" fill="#2DD06E"/>
<circle cx="248" cy="185" r="5" fill="#2DD06E"/>
</g>
<path d="M141.654 272H11.6245C8.54254 271.997 5.58783 270.77 3.40857 268.589C1.22931 266.407 0.00347884 263.45 0 260.366V71.6343C0.00347884 68.5498 1.22931 65.5926 3.40857 63.4115C5.58783 61.2304 8.54254 60.0035 11.6245 60H141.654C144.735 60.0035 147.69 61.2304 149.869 63.4115C152.049 65.5926 153.275 68.5498 153.278 71.6343V260.366C153.275 263.45 152.049 266.407 149.869 268.589C147.69 270.77 144.735 271.997 141.654 272Z" fill="#3F3D56"/>
<path d="M141.883 264.577H11.3959C10.4458 264.576 9.53502 264.198 8.86325 263.525C8.19147 262.853 7.81359 261.941 7.8125 260.99V71.0093C7.81359 70.0584 8.19147 69.1468 8.86325 68.4745C9.53502 67.8021 10.4458 67.4239 11.3959 67.4229H141.883C142.833 67.4239 143.744 67.8021 144.415 68.4745C145.087 69.1468 145.465 70.0584 145.466 71.0093V260.99C145.465 261.941 145.087 262.853 144.415 263.525C143.744 264.198 142.833 264.576 141.883 264.577Z" fill="white"/>
<path d="M76.1432 64.5527C76.6893 64.5527 77.1321 64.1096 77.1321 63.563C77.1321 63.0164 76.6893 62.5732 76.1432 62.5732C75.597 62.5732 75.1543 63.0164 75.1543 63.563C75.1543 64.1096 75.597 64.5527 76.1432 64.5527Z" fill="white"/>
<path d="M130.872 161.155L76.7593 123.082L22.0938 160.801L75.9441 183.559L130.872 161.155Z" fill="white"/>
<path d="M22.3041 160.766H22.3431L44.6921 170.317L75.2702 183.385C75.3897 183.436 75.5179 183.462 75.6476 183.462C75.7772 183.463 75.9056 183.438 76.0256 183.389L107.573 170.29L130.471 160.781L130.506 160.766H130.545C130.907 160.766 131.253 160.91 131.508 161.166C131.764 161.421 131.908 161.768 131.908 162.13V221.362C131.908 221.724 131.764 222.07 131.508 222.326C131.253 222.582 130.907 222.726 130.545 222.726H22.3041C21.9428 222.726 21.5965 222.582 21.341 222.326C21.0855 222.07 20.9418 221.724 20.9414 221.362V162.13C20.9418 161.768 21.0855 161.421 21.341 161.166C21.5965 160.91 21.9428 160.766 22.3041 160.766Z" fill="white"/>
<path d="M22.2065 161.155C22.2462 161.155 22.285 161.143 22.3176 161.121L76.1576 123.593C76.3215 123.479 76.5162 123.419 76.7156 123.419C76.9149 123.419 77.1094 123.481 77.2729 123.595L130.725 161.12C130.767 161.15 130.82 161.161 130.87 161.152C130.921 161.143 130.966 161.114 130.996 161.072C131.025 161.03 131.037 160.978 131.028 160.927C131.019 160.876 130.991 160.831 130.949 160.801L77.4964 123.276C77.2676 123.116 76.9953 123.03 76.7162 123.03C76.4371 123.029 76.1645 123.114 75.9351 123.273L22.0951 160.801C22.0611 160.824 22.0355 160.858 22.0222 160.898C22.0088 160.937 22.0082 160.979 22.0207 161.019C22.0331 161.059 22.0578 161.093 22.0913 161.118C22.1247 161.142 22.1651 161.155 22.2065 161.155L22.2065 161.155Z" fill="#3F3D56"/>
<path d="M127.672 162.486L76.6643 124.65L25.2695 165.178L74.0364 194.112L100.513 188.072L127.672 162.486Z" fill="#E6E6E6"/>
<path d="M98.2754 211.984H123.475C123.787 211.984 124.086 211.86 124.307 211.639C124.528 211.419 124.652 211.119 124.652 210.807C124.653 210.495 124.529 210.195 124.309 209.974C124.089 209.752 123.79 209.628 123.478 209.627H98.2754C97.9634 209.627 97.6641 209.751 97.4432 209.971C97.2224 210.192 97.0981 210.491 97.0977 210.803C97.0972 211.116 97.2206 211.415 97.4408 211.637C97.661 211.858 97.9599 211.983 98.2719 211.984H98.2754Z" fill="#2DD06E"/>
<path d="M114.434 206.918H123.474C123.786 206.918 124.086 206.794 124.307 206.573C124.527 206.353 124.652 206.053 124.652 205.741C124.653 205.429 124.529 205.129 124.309 204.908C124.089 204.687 123.79 204.562 123.478 204.561H114.434C114.122 204.561 113.822 204.685 113.601 204.905C113.381 205.126 113.256 205.425 113.256 205.738C113.255 206.05 113.379 206.35 113.599 206.571C113.819 206.792 114.118 206.917 114.43 206.918H114.434Z" fill="#2DD06E"/>
<path d="M75.9457 183.559C76.1372 183.56 76.327 183.522 76.5042 183.45L107.962 170.386V129.493C107.962 129.132 107.818 128.785 107.563 128.529C107.307 128.274 106.961 128.13 106.6 128.129H46.2495C45.8882 128.13 45.5418 128.274 45.2863 128.529C45.0309 128.785 44.8871 129.132 44.8867 129.493V170.414L44.9458 170.44L75.3702 183.444C75.5524 183.52 75.7481 183.56 75.9457 183.559Z" fill="white"/>
<path d="M75.3336 183.533L44.791 170.479V129.493C44.7915 129.106 44.9454 128.734 45.2192 128.46C45.4929 128.187 45.864 128.032 46.2511 128.032H106.601C106.988 128.032 107.36 128.187 107.633 128.46C107.907 128.734 108.061 129.106 108.061 129.493V170.451L76.543 183.54C76.1548 183.698 75.7199 183.695 75.3337 183.533H75.3336ZM107.672 129.493C107.672 129.209 107.559 128.937 107.358 128.736C107.157 128.535 106.885 128.422 106.601 128.422H46.2511C45.9672 128.422 45.6951 128.535 45.4943 128.736C45.2936 128.937 45.1807 129.209 45.1804 129.493V170.221L75.4857 183.174C75.776 183.296 76.1028 183.298 76.3945 183.18L107.672 170.191L107.672 129.493Z" fill="#3F3D56"/>
<path d="M21.2324 162.13V221.362C21.2328 221.724 21.3765 222.07 21.632 222.326C21.8875 222.582 22.2339 222.726 22.5952 222.726H130.836C131.198 222.726 131.544 222.582 131.799 222.326C132.055 222.07 132.199 221.724 132.199 221.362V162.13C132.199 161.768 132.055 161.421 131.799 161.166C131.544 160.91 131.198 160.766 130.836 160.766H130.797L130.762 160.781L107.864 170.29L76.3167 183.389C76.1967 183.438 76.0682 183.463 75.9386 183.462C75.809 183.462 75.6808 183.436 75.5613 183.385L44.9832 170.317L22.6342 160.766H22.5952C22.2339 160.766 21.8875 160.91 21.632 161.166C21.3765 161.421 21.2328 161.768 21.2324 162.13ZM21.6218 162.13C21.6224 161.878 21.7198 161.637 21.8938 161.455C22.0679 161.274 22.3051 161.166 22.5562 161.156L44.9832 170.74L75.4075 183.744C75.7458 183.886 76.1266 183.888 76.4665 183.75L107.864 170.711L130.873 161.156C131.125 161.166 131.363 161.273 131.537 161.454C131.712 161.636 131.809 161.878 131.81 162.13V221.362C131.81 221.621 131.707 221.868 131.524 222.051C131.342 222.234 131.094 222.336 130.836 222.336H22.5952C22.337 222.336 22.0895 222.234 21.907 222.051C21.7245 221.868 21.6219 221.621 21.6218 221.362V162.13Z" fill="#3F3D56"/>
<path d="M51.534 143.415H72.9486C73.3616 143.415 73.7578 143.251 74.0499 142.959C74.3419 142.666 74.506 142.27 74.506 141.856C74.506 141.443 74.3419 141.046 74.0499 140.754C73.7578 140.462 73.3616 140.298 72.9486 140.298H51.534C51.1209 140.298 50.7248 140.462 50.4327 140.754C50.1406 141.046 49.9766 141.443 49.9766 141.856C49.9766 142.27 50.1406 142.666 50.4327 142.959C50.7248 143.251 51.1209 143.415 51.534 143.415Z" fill="#2DD06E"/>
<path d="M51.5457 136.791H61.8637C62.2767 136.791 62.6728 136.626 62.9649 136.334C63.257 136.042 63.4211 135.645 63.4211 135.232C63.4211 134.818 63.257 134.422 62.9649 134.13C62.6728 133.837 62.2767 133.673 61.8637 133.673H51.5457C51.1327 133.673 50.7365 133.837 50.4444 134.13C50.1524 134.422 49.9883 134.818 49.9883 135.232C49.9883 135.645 50.1524 136.042 50.4444 136.334C50.7365 136.626 51.1327 136.791 51.5457 136.791Z" fill="#2DD06E"/>
<path d="M60.407 159.003H93.113C93.526 159.003 93.9222 158.839 94.2142 158.546C94.5063 158.254 94.6704 157.857 94.6704 157.444C94.6704 157.031 94.5063 156.634 94.2142 156.342C93.9222 156.049 93.526 155.885 93.113 155.885H60.407C59.994 155.885 59.5978 156.049 59.3058 156.342C59.0137 156.634 58.8496 157.031 58.8496 157.444C58.8496 157.857 59.0137 158.254 59.3058 158.546C59.5978 158.839 59.994 159.003 60.407 159.003Z" fill="#CCCCCC"/>
<path d="M60.407 166.212H93.113C93.526 166.212 93.9222 166.048 94.2142 165.755C94.5063 165.463 94.6704 165.066 94.6704 164.653C94.6704 164.24 94.5063 163.843 94.2142 163.551C93.9222 163.258 93.526 163.094 93.113 163.094H60.407C59.994 163.094 59.5978 163.258 59.3058 163.551C59.0137 163.843 58.8496 164.24 58.8496 164.653C58.8496 165.066 59.0137 165.463 59.3058 165.755C59.5978 166.048 59.994 166.212 60.407 166.212Z" fill="#CCCCCC"/>
<defs>
<clipPath id="clip0_1053_10164">
<rect width="200" height="200" fill="white" transform="translate(63)"/>
</clipPath>
</defs>
</svg>
