<svg width="20" height="20" viewBox="0 0 20 20" fill="none" xmlns="http://www.w3.org/2000/svg">
<path d="M14.9984 5.96669C14.9484 5.95836 14.8901 5.95836 14.8401 5.96669C13.6901 5.92502 12.7734 4.98336 12.7734 3.81669C12.7734 2.62502 13.7318 1.66669 14.9234 1.66669C16.1151 1.66669 17.0734 2.63336 17.0734 3.81669C17.0651 4.98336 16.1484 5.92502 14.9984 5.96669Z" stroke="white" stroke-width="1.5" stroke-linecap="round" stroke-linejoin="round"/>
<path d="M14.1383 12.0334C15.28 12.225 16.5383 12.025 17.4216 11.4334C18.5966 10.65 18.5966 9.3667 17.4216 8.58337C16.53 7.9917 15.2549 7.79169 14.1133 7.99169" stroke="white" stroke-width="1.5" stroke-linecap="round" stroke-linejoin="round"/>
<path d="M4.97344 5.96669C5.02344 5.95836 5.08177 5.95836 5.13177 5.96669C6.28177 5.92502 7.19844 4.98336 7.19844 3.81669C7.19844 2.62502 6.24011 1.66669 5.04844 1.66669C3.85677 1.66669 2.89844 2.63336 2.89844 3.81669C2.90677 4.98336 3.82344 5.92502 4.97344 5.96669Z" stroke="white" stroke-width="1.5" stroke-linecap="round" stroke-linejoin="round"/>
<path d="M5.83255 12.0334C4.69088 12.225 3.43255 12.025 2.54922 11.4334C1.37422 10.65 1.37422 9.3667 2.54922 8.58337C3.44089 7.9917 4.71588 7.79169 5.85755 7.99169" stroke="white" stroke-width="1.5" stroke-linecap="round" stroke-linejoin="round"/>
<path d="M10.0023 12.1917C9.95234 12.1833 9.89401 12.1833 9.84401 12.1917C8.69401 12.15 7.77734 11.2083 7.77734 10.0417C7.77734 8.85 8.73568 7.89166 9.92734 7.89166C11.119 7.89166 12.0773 8.85833 12.0773 10.0417C12.069 11.2083 11.1523 12.1583 10.0023 12.1917Z" stroke="white" stroke-width="1.5" stroke-linecap="round" stroke-linejoin="round"/>
<path d="M7.57656 14.8167C6.40156 15.6 6.40156 16.8833 7.57656 17.6667C8.9099 18.5583 11.0932 18.5583 12.4266 17.6667C13.6016 16.8833 13.6016 15.6 12.4266 14.8167C11.1016 13.9333 8.9099 13.9333 7.57656 14.8167Z" stroke="white" stroke-width="1.5" stroke-linecap="round" stroke-linejoin="round"/>
</svg>
