<svg width="384" height="281" viewBox="0 0 384 281" fill="none" xmlns="http://www.w3.org/2000/svg">
<g clip-path="url(#clip0_499_3301)">
<path d="M201.969 278.62H198.758L199.828 215.912H200.898L201.969 278.62Z" fill="#E6E6E6"/>
<path d="M204.502 176.375L209.676 168.389C208.142 164.156 206.37 160.012 204.368 155.978L201.022 158.677L203.672 154.588C201.147 149.625 199.16 146.498 199.16 146.498C199.16 146.498 188.784 162.829 185.317 180.121L191.957 190.369L184.606 184.44C184.345 186.454 184.21 188.483 184.203 190.514C184.203 210.993 190.9 227.595 199.16 227.595C207.421 227.595 214.118 210.993 214.118 190.514C214.118 184.165 212.68 177.523 210.696 171.379L204.502 176.375Z" fill="#E6E6E6"/>
<path d="M120.656 278.62H117.445L118.516 215.912H119.585L120.656 278.62Z" fill="#E6E6E6"/>
<path d="M124.393 176.375L129.567 168.389C128.033 164.156 126.26 160.012 124.259 155.978L120.913 158.677L123.562 154.588C121.038 149.625 119.051 146.498 119.051 146.498C119.051 146.498 108.674 162.829 105.208 180.121L111.847 190.369L104.497 184.44C104.235 186.454 104.101 188.483 104.094 190.514C104.094 210.993 110.79 227.595 119.051 227.595C127.312 227.595 134.008 210.993 134.008 190.514C134.008 184.165 132.57 177.523 130.587 171.379L124.393 176.375Z" fill="#E6E6E6"/>
<path d="M160.556 278.426H154.135L156.275 149.447H158.416L160.556 278.426Z" fill="#E6E6E6"/>
<path d="M166.138 68.1273L176.807 51.6603C173.643 42.9316 169.989 34.3882 165.862 26.0706L158.963 31.6356L164.425 23.2044C159.22 12.9701 155.124 6.52197 155.124 6.52197C155.124 6.52197 133.728 40.1965 126.58 75.8501L140.27 96.9812L125.115 84.7554C124.575 88.9087 124.297 93.0917 124.283 97.2798C124.283 139.506 138.091 173.736 155.124 173.736C172.157 173.736 185.964 139.506 185.964 97.2798C185.964 84.1894 182.999 70.4939 178.909 57.8252L166.138 68.1273Z" fill="#E6E6E6"/>
<path d="M129.382 59.145C145.735 59.145 158.991 45.9049 158.991 29.5725C158.991 13.2401 145.735 0 129.382 0C113.03 0 99.7734 13.2401 99.7734 29.5725C99.7734 45.9049 113.03 59.145 129.382 59.145Z" fill="#E6E6E6"/>
<path d="M384 278.248H0V279.216H384V278.248Z" fill="#3F3D56"/>
<path d="M345.614 126.297C345.774 126.297 345.933 126.266 346.081 126.205C346.229 126.143 346.363 126.054 346.476 125.94C346.59 125.827 346.68 125.693 346.741 125.545C346.802 125.397 346.834 125.239 346.834 125.079V112.08C346.836 111.885 346.79 111.692 346.701 111.518C346.612 111.344 346.481 111.194 346.321 111.081C346.161 110.969 345.976 110.897 345.782 110.872C345.588 110.846 345.391 110.868 345.207 110.936V96.2381C345.207 95.7047 345.102 95.1764 344.897 94.6836C344.693 94.1908 344.394 93.743 344.016 93.3658C343.638 92.9886 343.19 92.6894 342.696 92.4852C342.203 92.2811 341.674 92.176 341.14 92.176H208.147C207.613 92.176 207.084 92.2811 206.591 92.4852C206.097 92.6894 205.649 92.9886 205.271 93.3658C204.894 93.743 204.594 94.1908 204.39 94.6836C204.185 95.1764 204.08 95.7047 204.08 96.2381V274.562C204.08 275.64 204.509 276.673 205.271 277.435C206.034 278.197 207.068 278.625 208.147 278.625H341.14C342.219 278.625 343.253 278.197 344.016 277.435C344.779 276.673 345.207 275.64 345.207 274.562V144.502C345.391 144.57 345.588 144.592 345.782 144.566C345.976 144.541 346.161 144.469 346.321 144.357C346.481 144.244 346.611 144.094 346.701 143.92C346.79 143.746 346.836 143.553 346.834 143.358V130.359C346.836 130.164 346.79 129.971 346.701 129.797C346.611 129.623 346.481 129.473 346.321 129.361C346.161 129.248 345.976 129.176 345.782 129.151C345.588 129.126 345.391 129.148 345.207 129.215V126.223C345.337 126.271 345.475 126.296 345.614 126.297V126.297Z" fill="#3F3D56"/>
<path d="M333.006 100.097C333.541 100.097 334.069 100.202 334.563 100.406C335.056 100.611 335.505 100.91 335.882 101.287C336.26 101.664 336.56 102.112 336.764 102.605C336.968 103.098 337.074 103.626 337.074 104.159V266.642C337.074 267.719 336.645 268.752 335.882 269.514C335.12 270.276 334.085 270.704 333.006 270.704H216.282C215.203 270.704 214.169 270.276 213.406 269.514C212.643 268.752 212.215 267.719 212.215 266.642V104.159C212.215 103.082 212.643 102.049 213.406 101.287C214.169 100.525 215.203 100.097 216.282 100.097H333.006Z" fill="white"/>
<path d="M274.644 97.863C275.543 97.863 276.271 97.1355 276.271 96.2381C276.271 95.3407 275.543 94.6133 274.644 94.6133C273.746 94.6133 273.018 95.3407 273.018 96.2381C273.018 97.1355 273.746 97.863 274.644 97.863Z" fill="white"/>
<path d="M322.944 121.412H222.979V131.334H322.944V121.412Z" fill="#2DD06E"/>
<path d="M322.944 144.784H222.979V148.542H322.944V144.784Z" fill="#E6E6E6"/>
<path d="M322.944 156.254H222.979V160.012H322.944V156.254Z" fill="#E6E6E6"/>
<path d="M274.63 167.87H222.979V171.628H274.63V167.87Z" fill="#E6E6E6"/>
<path d="M322.944 179.692H222.979V183.45H322.944V179.692Z" fill="#E6E6E6"/>
<path d="M322.944 191.514H222.979V195.272H322.944V191.514Z" fill="#E6E6E6"/>
<path d="M272.901 203.336H222.979V207.094H272.901V203.336Z" fill="#E6E6E6"/>
<path d="M322.944 215.158H222.979V218.916H322.944V215.158Z" fill="#E6E6E6"/>
<path d="M322.944 226.98H222.979V230.738H322.944V226.98Z" fill="#E6E6E6"/>
<path d="M323.064 241.48H291.496V251.846H323.064V241.48Z" fill="#2DD06E"/>
<path d="M115.869 158.111H115.158V134.454C115.158 130.807 113.707 127.309 111.125 124.73C108.543 122.151 105.041 120.702 101.389 120.702H50.9343C49.1262 120.702 47.3358 121.058 45.6654 121.749C43.995 122.44 42.4771 123.453 41.1986 124.73C39.9201 126.007 38.906 127.523 38.2141 129.191C37.5221 130.86 37.166 132.648 37.166 134.454V264.873C37.166 266.679 37.5221 268.467 38.2141 270.136C38.906 271.804 39.9201 273.32 41.1986 274.597C42.4771 275.874 43.995 276.887 45.6654 277.578C47.3358 278.269 49.1262 278.625 50.9343 278.625H101.389C105.041 278.625 108.543 277.176 111.125 274.597C113.707 272.018 115.158 268.52 115.158 264.873V174.922H115.869V158.111Z" fill="#3F3D56"/>
<path d="M112.076 133.511V264.567C112.076 267.29 110.993 269.903 109.064 271.828C107.136 273.754 104.521 274.836 101.793 274.836H51.2414C48.5143 274.836 45.899 273.754 43.9706 271.828C42.0423 269.903 40.959 267.29 40.959 264.567V133.511C40.959 131.056 41.9354 128.701 43.6735 126.965C45.4116 125.229 47.769 124.254 50.227 124.254H57.3642C57.0947 124.927 56.9747 125.651 57.0124 126.375C57.0502 127.099 57.2448 127.806 57.5829 128.448C57.9945 129.157 58.5774 129.751 59.2783 130.176C59.9792 130.602 60.7757 130.845 61.595 130.883H91.0062C91.8256 130.845 92.6222 130.602 93.3231 130.176C94.024 129.751 94.6069 129.157 95.0184 128.448C95.3564 127.806 95.551 127.099 95.5887 126.375C95.6264 125.651 95.5064 124.927 95.2369 124.254H102.808C105.266 124.254 107.623 125.229 109.361 126.965C111.099 128.701 112.076 131.056 112.076 133.511V133.511Z" fill="white"/>
<path d="M170.651 97.9395C170.651 97.9395 165.288 96.0264 161.84 103.679C158.392 111.331 153.029 119.748 153.029 119.748L156.094 120.513C156.094 120.513 156.86 115.157 158.775 114.392L158.009 121.278C158.009 121.278 180.994 129.313 191.337 120.513L190.954 117.835C190.954 117.835 192.486 118.218 192.486 120.513L193.636 119.365C193.636 119.365 192.486 117.07 189.039 114.009C186.776 112 185.998 108.178 185.731 105.788C185.531 103.793 184.731 101.904 183.438 100.371C181.146 97.7186 176.972 94.8999 170.651 97.9395Z" fill="#2F2E41"/>
<path d="M139.154 163.584L144.169 169.959L147.361 166.315L144.625 161.762L139.154 163.584Z" fill="#FBBEBE"/>
<path d="M137.331 261.485L135.508 271.048L140.067 273.325L143.258 271.048V261.485H137.331Z" fill="#FBBEBE"/>
<path d="M169.245 261.485L171.069 271.048L166.51 273.325L163.318 271.048V261.485H169.245Z" fill="#FBBEBE"/>
<path d="M150.552 175.423L144.169 220.958L135.051 262.396L145.993 263.762L154.656 225.057L165.597 192.271L164.23 231.432L161.95 263.762H170.157L176.083 220.048L182.637 187.547L182.466 175.423H150.552Z" fill="#2F2E41"/>
<path d="M138.698 270.137C138.698 270.137 136.418 267.405 135.051 268.771C133.683 270.137 130.491 275.602 130.491 275.602C130.491 275.602 123.197 279.7 129.124 280.61C135.051 281.521 136.874 280.61 136.874 280.155C136.874 279.7 137.786 278.334 137.786 278.334L140.066 278.789L143.257 277.878C143.257 277.878 144.625 269.488 143.257 269.813C141.889 270.137 139.154 271.503 138.698 270.137Z" fill="#2F2E41"/>
<path d="M167.876 270.137C167.876 270.137 170.156 267.405 171.523 268.771C172.891 270.137 176.083 275.602 176.083 275.602C176.083 275.602 183.377 279.7 177.45 280.61C171.523 281.521 169.7 280.61 169.7 280.155C169.7 279.7 168.788 278.334 168.788 278.334L166.508 278.789L163.317 277.878C163.317 277.878 161.949 269.488 163.317 269.813C164.685 270.137 167.42 271.503 167.876 270.137Z" fill="#2F2E41"/>
<path d="M172.208 121.463C177.244 121.463 181.327 117.386 181.327 112.356C181.327 107.326 177.244 103.249 172.208 103.249C167.172 103.249 163.09 107.326 163.09 112.356C163.09 117.386 167.172 121.463 172.208 121.463Z" fill="#FBBEBE"/>
<path d="M178.363 118.048C178.363 118.048 177.451 125.789 177.907 127.61C178.363 129.432 179.275 132.164 179.275 132.164L164.686 129.432C164.686 129.432 168.789 120.78 167.877 119.414C166.965 118.048 178.363 118.048 178.363 118.048Z" fill="#FBBEBE"/>
<path d="M179.731 128.977L164.686 125.789L156.023 178.61C159.928 177.546 164.066 177.705 167.877 179.066C174.26 181.343 182.923 179.066 182.923 179.066L181.099 129.432L179.731 128.977Z" fill="#2DD06E"/>
<path d="M167.749 121.605L162.406 124.423L155.567 125.789L148.272 143.093L149.184 155.387C149.184 155.387 141.433 169.503 140.521 177.244C140.521 177.244 141.433 189.084 156.479 188.628L166.509 160.851C166.509 160.851 170.612 139.905 166.509 133.985C166.509 133.985 169.446 122.886 167.749 121.605Z" fill="#2F2E41"/>
<path d="M158.302 125.789L156.826 125.537L155.567 125.789C155.567 125.789 152.375 126.244 148.728 129.432C145.081 132.619 132.771 142.637 131.859 145.369C130.947 148.101 131.403 152.655 132.771 155.387C134.139 158.119 136.874 161.762 136.874 161.762L138.242 164.95L145.993 162.673C145.993 162.673 140.978 153.11 141.433 149.012L150.552 141.726L158.302 125.789Z" fill="#2F2E41"/>
<path d="M177.858 123.664L184.745 132.164L188.393 136.717L183.833 152.2L181.554 165.405C181.554 165.405 187.025 186.351 182.466 192.726C182.466 192.726 179.73 195.914 178.818 192.271C177.907 188.628 177.907 171.325 177.907 171.325C177.907 171.325 174.259 148.557 176.083 142.637C177.907 136.717 175.985 124.727 177.858 123.664Z" fill="#2F2E41"/>
<path d="M184.291 189.539V194.092C184.291 194.092 183.379 209.119 187.939 207.298C192.498 205.476 189.306 194.092 189.306 194.092L188.85 189.083L184.291 189.539Z" fill="#FBBEBE"/>
<path d="M162.045 112.841C165.513 110.335 168.32 107.448 170.176 104.014C170.176 104.014 176.54 111.076 180.429 111.429C184.318 111.782 180.783 102.955 180.783 102.955L173.712 101.189L166.995 101.895L161.691 105.426L162.045 112.841Z" fill="#2F2E41"/>
<path d="M184.745 135.351L188.393 136.717L188.849 141.271L190.672 169.048L189.76 189.995L182.922 190.45L180.642 167.226L179.73 141.727L184.745 135.351Z" fill="#2F2E41"/>
<path d="M104.127 161.396H48.709V166.897H104.127V161.396Z" fill="#2DD06E"/>
<path d="M104.127 174.353H48.709V176.437H104.127V174.353Z" fill="#E6E6E6"/>
<path d="M104.127 180.712H48.709V182.796H104.127V180.712Z" fill="#E6E6E6"/>
<path d="M77.3434 187.152H48.709V189.235H77.3434V187.152Z" fill="#E6E6E6"/>
<path d="M104.127 193.706H48.709V195.789H104.127V193.706Z" fill="#E6E6E6"/>
<path d="M104.127 200.259H48.709V202.343H104.127V200.259Z" fill="#E6E6E6"/>
<path d="M76.3845 206.813H48.709V208.897H76.3845V206.813Z" fill="#E6E6E6"/>
<path d="M104.127 213.367H48.709V215.45H104.127V213.367Z" fill="#E6E6E6"/>
<path d="M104.127 219.921H48.709V222.004H104.127V219.921Z" fill="#E6E6E6"/>
<path d="M104.194 227.959H86.6934V233.706H104.194V227.959Z" fill="#2DD06E"/>
</g>
<defs>
<clipPath id="clip0_499_3301">
<rect width="384" height="281" fill="white"/>
</clipPath>
</defs>
</svg>
