<svg width="138" height="30" viewBox="0 0 138 30" fill="none" xmlns="http://www.w3.org/2000/svg">
<path d="M0.912 23H5.072V14.776H10.544C15.312 14.776 18.384 11.896 18.384 7.672C18.384 3.384 15.312 0.599998 10.544 0.599998H0.912V23ZM5.072 11.256V4.184H9.808C12.464 4.184 14.032 5.528 14.032 7.672C14.032 9.816 12.432 11.256 9.808 11.256H5.072ZM21.618 23H25.522V16.44C25.522 12.344 26.962 10.744 30.354 10.744C30.962 10.744 31.538 10.776 32.082 10.872V6.872C31.698 6.808 31.314 6.776 30.898 6.776C27.666 6.776 26.258 8.6 25.554 11.768H23.73C24.53 10.456 25.234 8.504 25.234 7.064H21.618V23ZM33.3105 15.032C33.3105 19.896 36.7345 23.48 41.3425 23.48C45.9505 23.48 49.3745 20.056 49.3745 15.032C49.3745 10.072 46.0145 6.584 41.3425 6.584C36.6385 6.584 33.3105 10.072 33.3105 15.032ZM45.3425 15.096C45.3425 18.52 43.7745 20.312 41.3425 20.312C38.9105 20.312 37.3425 18.52 37.3425 15.096C37.3425 11.608 38.9105 9.752 41.3425 9.752C43.6785 9.752 45.3425 11.608 45.3425 15.096ZM53.153 4.536H57.217V0.599998H53.153V4.536ZM49.409 29.24H53.089C55.681 29.24 57.121 27.736 57.121 25.176V7.064H53.281V24.536C53.281 25.56 52.833 26.008 51.777 26.008H49.409V29.24ZM60.78 15.032C60.78 20.312 63.852 23.48 68.556 23.48C72.492 23.48 74.892 21.624 76.012 18.84L72.492 17.528C71.756 19.192 70.636 20.408 68.588 20.408C66.38 20.408 64.78 19.032 64.652 15.992H75.916C75.948 15.64 75.98 15.224 75.98 14.776C75.98 10.04 73.1 6.584 68.492 6.584C64.076 6.584 60.78 10.008 60.78 15.032ZM64.78 13.112C65.068 10.84 66.54 9.496 68.492 9.496C70.54 9.496 71.916 10.808 72.044 13.112H64.78ZM78.5605 15C78.5605 20.088 81.9525 23.48 86.7525 23.48C90.4325 23.48 93.1525 21.464 94.3045 18.392L90.6245 17.08C89.9525 19.16 88.7365 20.312 86.6885 20.312C84.3525 20.312 82.5285 18.488 82.5285 15C82.5285 11.576 84.3205 9.752 86.6565 9.752C88.4805 9.752 89.7605 10.84 90.4005 12.6L93.9845 11.32C93.0245 8.6 90.4325 6.584 86.7525 6.584C82.1125 6.584 78.5605 10.008 78.5605 15ZM98.9993 18.936C98.9993 21.496 100.439 23 103.031 23H107.767V19.8H104.375C103.351 19.8 102.903 19.352 102.903 18.328V10.104H107.127V7.064H102.903V2.072H98.9993V7.064H95.5433V10.104H98.9993V18.936Z" fill="#303030"/>
<path d="M115.405 23H120.238L123.598 18.2C125.326 15.672 125.742 14.776 125.87 12.568H127.438C127.438 14.776 127.79 16.216 129.07 18.136L132.302 23H137.614L129.134 11.128L136.686 0.599998H131.918L129.294 4.344C127.79 6.616 127.31 7.416 127.246 9.944H125.678C125.614 7.512 125.39 6.04 123.982 4.12L121.454 0.599998H116.174L123.982 11.096L115.405 23Z" fill="#2DD06E"/>
</svg>
