<svg width="20" height="20" viewBox="0 0 20 20" fill="none" xmlns="http://www.w3.org/2000/svg">
<path d="M10.0001 6.57501L9.10838 8.12501C8.90838 8.46668 9.07505 8.75001 9.46672 8.75001H10.5251C10.9251 8.75001 11.0834 9.03335 10.8834 9.37501L10.0001 10.925" stroke="white" stroke-width="1.5" stroke-linecap="round" stroke-linejoin="round"/>
<path d="M6.91745 15.0333V14.0667C5.00078 12.9083 3.42578 10.65 3.42578 8.25C3.42578 4.125 7.21745 0.891671 11.5008 1.825C13.3841 2.24167 15.0341 3.49167 15.8924 5.21667C17.6341 8.71667 15.8008 12.4333 13.1091 14.0583V15.025C13.1091 15.2667 13.2008 15.825 12.3091 15.825H7.71745C6.80078 15.8333 6.91745 15.475 6.91745 15.0333Z" stroke="white" stroke-width="1.5" stroke-linecap="round" stroke-linejoin="round"/>
<path d="M7.08203 18.3333C8.99036 17.7916 11.007 17.7916 12.9154 18.3333" stroke="white" stroke-width="1.5" stroke-linecap="round" stroke-linejoin="round"/>
</svg>
