<svg width="341" height="234" viewBox="0 0 341 234" fill="none" xmlns="http://www.w3.org/2000/svg">
<g opacity="0.16" clip-path="url(#clip0_1092_10188)">
<circle cx="146" cy="5" r="5" fill="#2DD06E"/>
<circle cx="166" cy="5" r="5" fill="#2DD06E"/>
<circle cx="186" cy="5" r="5" fill="#2DD06E"/>
<circle cx="206" cy="5" r="5" fill="#2DD06E"/>
<circle cx="226" cy="5" r="5" fill="#2DD06E"/>
<circle cx="246" cy="5" r="5" fill="#2DD06E"/>
<circle cx="266" cy="5" r="5" fill="#2DD06E"/>
<circle cx="286" cy="5" r="5" fill="#2DD06E"/>
<circle cx="306" cy="5" r="5" fill="#2DD06E"/>
<circle cx="326" cy="5" r="5" fill="#2DD06E"/>
<circle cx="146" cy="25" r="5" fill="#2DD06E"/>
<circle cx="166" cy="25" r="5" fill="#2DD06E"/>
<circle cx="186" cy="25" r="5" fill="#2DD06E"/>
<circle cx="206" cy="25" r="5" fill="#2DD06E"/>
<circle cx="226" cy="25" r="5" fill="#2DD06E"/>
<circle cx="246" cy="25" r="5" fill="#2DD06E"/>
<circle cx="266" cy="25" r="5" fill="#2DD06E"/>
<circle cx="286" cy="25" r="5" fill="#2DD06E"/>
<circle cx="306" cy="25" r="5" fill="#2DD06E"/>
<circle cx="326" cy="25" r="5" fill="#2DD06E"/>
<circle cx="146" cy="45" r="5" fill="#2DD06E"/>
<circle cx="166" cy="45" r="5" fill="#2DD06E"/>
<circle cx="186" cy="45" r="5" fill="#2DD06E"/>
<circle cx="206" cy="45" r="5" fill="#2DD06E"/>
<circle cx="226" cy="45" r="5" fill="#2DD06E"/>
<circle cx="246" cy="45" r="5" fill="#2DD06E"/>
<circle cx="266" cy="45" r="5" fill="#2DD06E"/>
<circle cx="286" cy="45" r="5" fill="#2DD06E"/>
<circle cx="306" cy="45" r="5" fill="#2DD06E"/>
<circle cx="326" cy="45" r="5" fill="#2DD06E"/>
<circle cx="146" cy="65" r="5" fill="#2DD06E"/>
<circle cx="166" cy="65" r="5" fill="#2DD06E"/>
<circle cx="186" cy="65" r="5" fill="#2DD06E"/>
<circle cx="206" cy="65" r="5" fill="#2DD06E"/>
<circle cx="226" cy="65" r="5" fill="#2DD06E"/>
<circle cx="246" cy="65" r="5" fill="#2DD06E"/>
<circle cx="266" cy="65" r="5" fill="#2DD06E"/>
<circle cx="286" cy="65" r="5" fill="#2DD06E"/>
<circle cx="306" cy="65" r="5" fill="#2DD06E"/>
<circle cx="326" cy="65" r="5" fill="#2DD06E"/>
<circle cx="146" cy="85" r="5" fill="#2DD06E"/>
<circle cx="166" cy="85" r="5" fill="#2DD06E"/>
<circle cx="186" cy="85" r="5" fill="#2DD06E"/>
<circle cx="206" cy="85" r="5" fill="#2DD06E"/>
<circle cx="226" cy="85" r="5" fill="#2DD06E"/>
<circle cx="246" cy="85" r="5" fill="#2DD06E"/>
<circle cx="266" cy="85" r="5" fill="#2DD06E"/>
<circle cx="286" cy="85" r="5" fill="#2DD06E"/>
<circle cx="306" cy="85" r="5" fill="#2DD06E"/>
<circle cx="326" cy="85" r="5" fill="#2DD06E"/>
<circle cx="146" cy="105" r="5" fill="#2DD06E"/>
<circle cx="166" cy="105" r="5" fill="#2DD06E"/>
<circle cx="186" cy="105" r="5" fill="#2DD06E"/>
<circle cx="206" cy="105" r="5" fill="#2DD06E"/>
<circle cx="226" cy="105" r="5" fill="#2DD06E"/>
<circle cx="246" cy="105" r="5" fill="#2DD06E"/>
<circle cx="266" cy="105" r="5" fill="#2DD06E"/>
<circle cx="286" cy="105" r="5" fill="#2DD06E"/>
<circle cx="306" cy="105" r="5" fill="#2DD06E"/>
<circle cx="326" cy="105" r="5" fill="#2DD06E"/>
<circle cx="146" cy="125" r="5" fill="#2DD06E"/>
<circle cx="166" cy="125" r="5" fill="#2DD06E"/>
<circle cx="186" cy="125" r="5" fill="#2DD06E"/>
<circle cx="206" cy="125" r="5" fill="#2DD06E"/>
<circle cx="226" cy="125" r="5" fill="#2DD06E"/>
<circle cx="246" cy="125" r="5" fill="#2DD06E"/>
<circle cx="266" cy="125" r="5" fill="#2DD06E"/>
<circle cx="286" cy="125" r="5" fill="#2DD06E"/>
<circle cx="306" cy="125" r="5" fill="#2DD06E"/>
<circle cx="326" cy="125" r="5" fill="#2DD06E"/>
<circle cx="146" cy="145" r="5" fill="#2DD06E"/>
<circle cx="166" cy="145" r="5" fill="#2DD06E"/>
<circle cx="186" cy="145" r="5" fill="#2DD06E"/>
<circle cx="206" cy="145" r="5" fill="#2DD06E"/>
<circle cx="226" cy="145" r="5" fill="#2DD06E"/>
<circle cx="246" cy="145" r="5" fill="#2DD06E"/>
<circle cx="266" cy="145" r="5" fill="#2DD06E"/>
<circle cx="286" cy="145" r="5" fill="#2DD06E"/>
<circle cx="306" cy="145" r="5" fill="#2DD06E"/>
<circle cx="326" cy="145" r="5" fill="#2DD06E"/>
<circle cx="146" cy="165" r="5" fill="#2DD06E"/>
<circle cx="166" cy="165" r="5" fill="#2DD06E"/>
<circle cx="186" cy="165" r="5" fill="#2DD06E"/>
<circle cx="206" cy="165" r="5" fill="#2DD06E"/>
<circle cx="226" cy="165" r="5" fill="#2DD06E"/>
<circle cx="246" cy="165" r="5" fill="#2DD06E"/>
<circle cx="266" cy="165" r="5" fill="#2DD06E"/>
<circle cx="286" cy="165" r="5" fill="#2DD06E"/>
<circle cx="306" cy="165" r="5" fill="#2DD06E"/>
<circle cx="326" cy="165" r="5" fill="#2DD06E"/>
<circle cx="146" cy="185" r="5" fill="#2DD06E"/>
<circle cx="166" cy="185" r="5" fill="#2DD06E"/>
<circle cx="186" cy="185" r="5" fill="#2DD06E"/>
<circle cx="206" cy="185" r="5" fill="#2DD06E"/>
<circle cx="226" cy="185" r="5" fill="#2DD06E"/>
<circle cx="246" cy="185" r="5" fill="#2DD06E"/>
<circle cx="266" cy="185" r="5" fill="#2DD06E"/>
<circle cx="286" cy="185" r="5" fill="#2DD06E"/>
<circle cx="306" cy="185" r="5" fill="#2DD06E"/>
<circle cx="326" cy="185" r="5" fill="#2DD06E"/>
</g>
<g clip-path="url(#clip1_1092_10188)">
<path opacity="0.1" d="M140.842 85.417C124.881 85.4383 109.518 80.9113 94.824 75.8822C80.1296 70.8531 65.5483 65.2215 49.8845 62.8351C39.8107 61.3012 28.3554 61.4422 20.4808 67.0118C12.9008 72.3699 10.7058 81.2382 9.64679 89.4313C8.85036 95.5948 8.48311 102.064 11.466 107.702C13.5371 111.616 17.0815 114.842 19.5797 118.572C28.2999 131.548 23.0558 148.125 14.5812 161.403C10.6076 167.632 5.9529 173.604 2.94868 180.19C-0.0555345 186.777 -1.28754 194.246 1.77646 200.747C4.81271 207.19 11.671 211.867 19.031 215.061C33.9773 221.56 51.3792 222.952 68.3134 223.489C105.799 224.679 143.357 222.252 180.815 219.825C194.676 218.927 208.6 218.024 222.176 215.424C229.713 213.982 237.474 211.841 242.819 207.149C249.602 201.193 250.99 191.468 246.053 184.478C237.775 172.753 215.947 170.542 210.011 157.856C206.738 150.872 209.561 142.863 213.718 136.131C222.635 121.687 237.982 108.749 238.241 92.5932C238.418 81.4988 230.437 70.6758 218.516 65.8539C206.021 60.8034 188.984 62.1023 180.23 71.5154C171.228 81.2125 154.934 85.402 140.842 85.417Z" fill="#6C63FF"/>
<path d="M211.924 199.875C211.924 199.875 209.3 198.143 206.699 199.375C206.699 199.375 207.5 200.918 210.792 200.773L211.924 199.875Z" fill="#6C63FF"/>
<path d="M212.257 199.967C212.257 199.967 213.056 203.009 211.053 205.079C211.053 205.079 209.849 203.825 211.053 200.753L212.257 199.967Z" fill="#6C63FF"/>
<path d="M215.52 197.047C215.52 197.047 215.326 194.459 209.486 195.318C209.486 195.318 209.459 196.987 211.508 197.777C213.558 198.568 214.498 197.901 215.52 197.047Z" fill="#6C63FF"/>
<path d="M215.888 197.029C215.888 197.029 218.356 197.822 216.155 203.302C216.155 203.302 214.526 202.939 214.233 200.757C213.941 198.576 214.808 197.824 215.888 197.029Z" fill="#6C63FF"/>
<path d="M219.185 193.359C219.185 193.359 219.52 189.101 213.552 189.537C213.552 189.537 213.125 193.383 218.132 194.382L219.185 193.359Z" fill="#6C63FF"/>
<path d="M223.127 188.552C223.127 188.552 222.31 183.726 216.344 185.164C216.344 185.164 216.322 189.336 222.154 189.702L223.127 188.552Z" fill="#6C63FF"/>
<path d="M226.011 183.583C226.011 183.583 224.641 178.883 218.73 180.289C218.73 180.289 220.138 184.516 225.619 184.45L226.011 183.583Z" fill="#2DD06E"/>
<path d="M228.747 178.729C228.747 178.729 227.409 173.852 221.701 175.311C221.701 175.311 223.606 179.945 228.369 179.554L228.747 178.729Z" fill="#2DD06E"/>
<path d="M230.512 174.119C230.512 174.119 229.483 168.154 224.162 169.474C224.162 169.474 225.708 174.901 230.121 174.988L230.512 174.119Z" fill="#2DD06E"/>
<path d="M232.166 168.549C232.166 168.549 230.93 162.537 225.547 164.276C225.547 164.276 227.656 169.959 231.784 169.372L232.166 168.549Z" fill="#2DD06E"/>
<path d="M233.182 163.366C233.182 163.366 231.22 157.352 227.059 157.514C227.059 157.514 229.064 163.866 232.834 164.565L233.182 163.366Z" fill="#2DD06E"/>
<path d="M233.84 158.307C233.84 158.307 231.705 151.069 228.318 151.627C228.318 151.627 229.796 157.16 233.72 159.435L233.84 158.307Z" fill="#2DD06E"/>
<path d="M234.213 152.272C234.213 152.272 232.21 146.241 228.875 145.999C228.875 145.999 230.237 151.934 234.147 153.84L234.213 152.272Z" fill="#2DD06E"/>
<path d="M234.615 146.64C234.615 146.64 232.119 140.603 229.918 140.466C229.918 140.466 231.003 146.411 234.402 147.631L234.615 146.64Z" fill="#2DD06E"/>
<path d="M234.891 141.402C234.891 141.402 233.356 134.845 231.15 134.3C231.15 134.3 231.451 139.665 234.669 141.893L234.891 141.402Z" fill="#2DD06E"/>
<path d="M235.724 134.54C235.724 134.54 234.109 129.312 232.322 128.515C232.322 128.515 232.675 134.678 235.312 135.817L235.724 134.54Z" fill="#2DD06E"/>
<path d="M236.412 130.053L236.736 120.837C236.736 120.837 233.395 127.784 236.171 131.67L236.412 130.053Z" fill="#2DD06E"/>
<path d="M238.993 120.886C238.993 120.886 241.4 114.156 241.983 113.78C241.983 113.78 237.264 118.147 237.725 123.763L238.993 120.886Z" fill="#2DD06E"/>
<path d="M219.346 193.327C219.346 193.327 223.578 192.774 223.452 198.758C223.452 198.758 219.628 199.382 218.379 194.431L219.346 193.327Z" fill="#6C63FF"/>
<path d="M223.327 188.39C223.327 188.39 228.217 188.375 227.811 194.5C227.811 194.5 223.705 195.235 222.352 189.548L223.327 188.39Z" fill="#2DD06E"/>
<path d="M226.057 183.978C226.057 183.978 230.496 181.895 233.336 187.272C233.336 187.272 229.236 189.007 225.664 184.848L226.057 183.978Z" fill="#2DD06E"/>
<path d="M228.846 178.774C228.846 178.774 233.392 176.558 236.061 181.81C236.061 181.81 231.325 183.442 228.471 179.605L228.846 178.774Z" fill="#2DD06E"/>
<path d="M230.453 174.249C230.453 174.249 234.828 170.068 238.319 174.296C238.319 174.296 233.85 177.738 230.252 175.18L230.453 174.249Z" fill="#2DD06E"/>
<path d="M231.918 168.406C231.918 168.406 236.318 164.133 239.782 168.602C239.782 168.602 234.843 172.112 231.76 169.303L231.918 168.406Z" fill="#2DD06E"/>
<path d="M232.74 163.195C232.74 163.195 236.131 157.854 240.124 159.046C240.124 159.046 236.605 164.701 232.779 164.449L232.74 163.195Z" fill="#2DD06E"/>
<path d="M233.74 158.273C233.74 158.273 237.156 151.548 240.389 152.718C240.389 152.718 237.925 157.889 233.652 159.408L233.74 158.273Z" fill="#2DD06E"/>
<path d="M233.976 151.921C233.976 151.921 237.489 146.627 240.779 147.275C240.779 147.275 237.907 152.643 233.635 153.453L233.976 151.921Z" fill="#2DD06E"/>
<path d="M234.25 146.523C234.25 146.523 236.972 140.581 239.184 140.541C239.184 140.541 237.878 146.439 234.434 147.531L234.25 146.523Z" fill="#2DD06E"/>
<path d="M234.783 141.274C234.783 141.274 237.809 135.257 240.083 135.245C240.083 135.245 238.535 140.389 234.884 141.801L234.783 141.274Z" fill="#2DD06E"/>
<path d="M235.238 134.916C235.238 134.916 237.502 129.938 239.376 129.374C239.376 129.374 238.245 135.441 235.488 136.236L235.238 134.916Z" fill="#2DD06E"/>
<path d="M236.682 129.872L241.74 122.161C241.74 122.161 240.444 129.767 235.943 131.348L236.682 129.872Z" fill="#2DD06E"/>
<path d="M240.154 121.508C240.154 121.508 246.032 117.448 246.246 116.792C246.246 116.792 243.257 122.477 237.705 123.482L240.154 121.508Z" fill="#2DD06E"/>
<path d="M240.506 119.681C240.506 119.681 247.255 113.188 248.978 113.195C248.978 113.195 243.412 113.449 240.344 119.335L240.506 119.681Z" fill="#2DD06E"/>
<path d="M235.305 135.879L235.55 135.911C236.819 125.979 238.668 120.102 240.756 119.382L240.675 119.147C238.46 119.916 236.599 125.703 235.305 135.879Z" fill="#444053"/>
<path d="M233.438 159.632L233.809 159.662C233.888 158.734 233.948 157.786 233.988 156.839C234.343 148.619 234.892 141.068 235.613 135.409L235.4 135.142C234.676 140.814 233.971 148.591 233.617 156.824C233.576 157.764 233.517 158.709 233.438 159.632Z" fill="#444053"/>
<path d="M204.998 204.614C205.062 204.586 211.602 201.663 218.39 194.694C222.366 190.613 225.671 185.926 228.179 180.808C231.318 174.413 233.231 166.556 233.872 158.922L233.485 159.104C232.044 176.238 224.248 187.945 218.05 194.323C211.328 201.23 204.861 204.122 204.797 204.15L204.998 204.614Z" fill="#444053"/>
<path d="M221.932 80.2085H16.7652C16.2805 80.2085 15.8156 80.4012 15.4728 80.7441C15.1301 81.0871 14.9375 81.5522 14.9375 82.0373V87.3655H223.76V82.0373C223.76 81.5522 223.567 81.0871 223.224 80.7441C222.881 80.4012 222.417 80.2085 221.932 80.2085Z" fill="#3F3D56"/>
<path d="M14.9375 87.3655V207.269C14.9375 208.247 15.3258 209.185 16.0169 209.877C16.708 210.568 17.6454 210.957 18.6228 210.957H220.074C221.052 210.957 221.989 210.568 222.68 209.877C223.371 209.185 223.76 208.247 223.76 207.269V87.3655H14.9375Z" fill="white"/>
<path opacity="0.8" d="M18.2447 84.5883C18.7164 84.5883 19.0988 84.2057 19.0988 83.7337C19.0988 83.2618 18.7164 82.8792 18.2447 82.8792C17.773 82.8792 17.3906 83.2618 17.3906 83.7337C17.3906 84.2057 17.773 84.5883 18.2447 84.5883Z" fill="#FA5959"/>
<path opacity="0.8" d="M20.5943 84.5883C21.066 84.5883 21.4484 84.2057 21.4484 83.7337C21.4484 83.2618 21.066 82.8792 20.5943 82.8792C20.1226 82.8792 19.7402 83.2618 19.7402 83.7337C19.7402 84.2057 20.1226 84.5883 20.5943 84.5883Z" fill="#FED253"/>
<path opacity="0.8" d="M22.9439 84.5883C23.4156 84.5883 23.798 84.2057 23.798 83.7337C23.798 83.2618 23.4156 82.8792 22.9439 82.8792C22.4722 82.8792 22.0898 83.2618 22.0898 83.7337C22.0898 84.2057 22.4722 84.5883 22.9439 84.5883Z" fill="#8CCF4D"/>
<path opacity="0.05" d="M202.176 107.358H34.3496V181.197H202.176V107.358Z" fill="black"/>
<path d="M200.895 107.918H35.6309V180.128H200.895V107.918Z" fill="#3F3D56"/>
<path d="M80.6832 126.502C77.4315 126.502 74.2528 127.467 71.5491 129.275C68.8454 131.082 66.7381 133.652 65.4937 136.658C64.2493 139.663 63.9237 142.971 64.5581 146.162C65.1925 149.353 66.7583 152.284 69.0577 154.585C71.357 156.886 74.2865 158.452 77.4757 159.087C80.665 159.722 83.9707 159.396 86.9749 158.151C89.9791 156.906 92.5468 154.797 94.3534 152.092C96.1599 149.387 97.1242 146.206 97.1242 142.953C97.1242 140.792 96.6989 138.653 95.8727 136.658C95.0465 134.662 93.8354 132.848 92.3087 131.321C90.782 129.793 88.9696 128.581 86.9749 127.755C84.9802 126.928 82.8423 126.502 80.6832 126.502ZM83.6319 143.348V151.137H77.8199V143.348C77.0156 142.739 76.4228 141.892 76.1253 140.928C75.8277 139.964 75.8404 138.93 76.1615 137.973C76.4826 137.016 77.096 136.185 77.9149 135.595C78.7339 135.006 79.7172 134.689 80.7259 134.689C81.7346 134.689 82.7179 135.006 83.5369 135.595C84.3558 136.185 84.9692 137.016 85.2903 137.973C85.6114 138.93 85.6241 139.964 85.3265 140.928C85.0289 141.892 84.4362 142.739 83.6319 143.348Z" fill="#6C63FF"/>
<path opacity="0.05" d="M80.6832 126.502C77.4315 126.502 74.2528 127.467 71.5491 129.275C68.8454 131.082 66.7381 133.652 65.4937 136.658C64.2493 139.663 63.9237 142.971 64.5581 146.162C65.1925 149.353 66.7583 152.284 69.0577 154.585C71.357 156.886 74.2865 158.452 77.4757 159.087C80.665 159.722 83.9707 159.396 86.9749 158.151C89.9791 156.906 92.5468 154.797 94.3534 152.092C96.1599 149.387 97.1242 146.206 97.1242 142.953C97.1242 140.792 96.6989 138.653 95.8727 136.658C95.0465 134.662 93.8354 132.848 92.3087 131.321C90.782 129.793 88.9696 128.581 86.9749 127.755C84.9802 126.928 82.8423 126.502 80.6832 126.502ZM83.6319 143.348V151.137H77.8199V143.348C77.0156 142.739 76.4228 141.892 76.1253 140.928C75.8277 139.964 75.8404 138.93 76.1615 137.973C76.4826 137.016 77.096 136.185 77.9149 135.595C78.7339 135.006 79.7172 134.689 80.7259 134.689C81.7346 134.689 82.7179 135.006 83.5369 135.595C84.3558 136.185 84.9692 137.016 85.2903 137.973C85.6114 138.93 85.6241 139.964 85.3265 140.928C85.0289 141.892 84.4362 142.739 83.6319 143.348Z" fill="black"/>
<path d="M80.6834 121.802C76.5026 121.802 72.4157 123.043 68.9395 125.367C65.4633 127.691 62.7539 130.994 61.154 134.859C59.5541 138.723 59.1355 142.976 59.9511 147.079C60.7667 151.182 62.78 154.95 65.7362 157.908C68.6925 160.866 72.459 162.881 76.5595 163.697C80.6599 164.513 84.9101 164.094 88.7727 162.493C92.6352 160.892 95.9366 158.181 98.2593 154.703C100.582 151.225 101.822 147.136 101.822 142.953C101.822 137.343 99.5947 131.964 95.6305 127.997C91.6663 124.031 86.2896 121.802 80.6834 121.802ZM84.4733 143.461V153.474H77.0002V143.461C75.9657 142.678 75.2032 141.589 74.8204 140.349C74.4376 139.109 74.4538 137.779 74.8667 136.549C75.2796 135.318 76.0683 134.249 77.1216 133.491C78.1749 132.733 79.4394 132.325 80.7367 132.325C82.0341 132.325 83.2986 132.733 84.3519 133.491C85.4051 134.249 86.1939 135.318 86.6068 136.549C87.0197 137.779 87.0359 139.109 86.6531 140.349C86.2703 141.589 85.5078 142.678 84.4733 143.461Z" fill="#2DD06E"/>
<path d="M178.902 140.177H110.576V147.441H178.902V140.177Z" fill="white"/>
<path d="M178.901 153.423H164.168V160.687H178.901V153.423Z" fill="#2DD06E"/>
<path d="M117.301 143.701H116.065L117.164 142.602C117.184 142.582 117.195 142.555 117.195 142.527C117.195 142.498 117.184 142.471 117.164 142.451C117.155 142.441 117.143 142.433 117.13 142.427C117.117 142.422 117.103 142.419 117.089 142.419C117.075 142.419 117.061 142.422 117.048 142.427C117.035 142.433 117.023 142.441 117.013 142.451L115.913 143.551V142.312C115.913 142.284 115.902 142.256 115.882 142.236C115.862 142.216 115.835 142.205 115.806 142.205C115.778 142.206 115.751 142.217 115.732 142.237C115.712 142.257 115.7 142.284 115.7 142.312V143.551L114.602 142.444C114.592 142.434 114.58 142.426 114.567 142.421C114.554 142.416 114.541 142.413 114.526 142.413C114.512 142.413 114.498 142.416 114.485 142.421C114.472 142.426 114.461 142.434 114.451 142.444C114.431 142.465 114.42 142.492 114.42 142.52C114.42 142.549 114.431 142.576 114.451 142.596L115.55 143.694H114.312C114.284 143.695 114.257 143.706 114.237 143.726C114.217 143.746 114.206 143.773 114.205 143.801C114.205 143.829 114.216 143.856 114.236 143.877C114.256 143.897 114.284 143.908 114.312 143.908H115.55L114.451 145.008C114.431 145.028 114.42 145.056 114.42 145.084C114.42 145.112 114.431 145.139 114.451 145.16C114.471 145.179 114.498 145.19 114.526 145.19C114.555 145.19 114.582 145.179 114.602 145.16L115.7 144.059V145.296C115.7 145.325 115.711 145.352 115.731 145.372C115.751 145.392 115.778 145.403 115.806 145.403C115.835 145.403 115.862 145.392 115.882 145.372C115.902 145.352 115.913 145.325 115.913 145.296V144.059L117.013 145.16C117.033 145.179 117.061 145.19 117.089 145.19C117.117 145.19 117.144 145.179 117.164 145.16C117.184 145.139 117.195 145.112 117.195 145.084C117.195 145.056 117.184 145.028 117.164 145.008L116.065 143.908H117.301C117.329 143.908 117.357 143.897 117.377 143.877C117.397 143.856 117.408 143.829 117.408 143.801C117.406 143.774 117.394 143.748 117.374 143.73C117.355 143.711 117.328 143.701 117.301 143.701Z" fill="#2DD06E"/>
<path d="M121.786 143.701H120.549L121.649 142.602C121.669 142.582 121.68 142.555 121.68 142.527C121.68 142.498 121.669 142.471 121.649 142.451C121.639 142.441 121.627 142.433 121.614 142.427C121.601 142.422 121.587 142.419 121.573 142.419C121.559 142.419 121.545 142.422 121.532 142.427C121.519 142.433 121.507 142.441 121.497 142.451L120.398 143.551V142.312C120.398 142.284 120.386 142.256 120.366 142.236C120.346 142.216 120.319 142.205 120.291 142.205C120.263 142.206 120.236 142.217 120.216 142.237C120.196 142.257 120.185 142.284 120.184 142.312V143.551L119.087 142.444C119.077 142.434 119.065 142.426 119.052 142.421C119.039 142.416 119.025 142.413 119.011 142.413C118.997 142.413 118.983 142.416 118.97 142.421C118.957 142.426 118.945 142.434 118.935 142.444C118.915 142.465 118.904 142.492 118.904 142.52C118.904 142.549 118.915 142.576 118.935 142.596L120.035 143.694H118.796C118.768 143.695 118.741 143.706 118.721 143.726C118.701 143.746 118.69 143.773 118.689 143.801C118.689 143.829 118.701 143.856 118.721 143.877C118.741 143.897 118.768 143.908 118.796 143.908H120.035L118.935 145.008C118.915 145.028 118.904 145.056 118.904 145.084C118.904 145.112 118.915 145.139 118.935 145.16C118.956 145.179 118.983 145.19 119.011 145.19C119.039 145.19 119.066 145.179 119.087 145.16L120.184 144.059V145.296C120.184 145.325 120.195 145.352 120.215 145.372C120.235 145.392 120.263 145.403 120.291 145.403C120.319 145.403 120.346 145.392 120.366 145.372C120.386 145.352 120.398 145.325 120.398 145.296V144.059L121.497 145.16C121.518 145.179 121.545 145.19 121.573 145.19C121.601 145.19 121.628 145.179 121.649 145.16C121.669 145.139 121.68 145.112 121.68 145.084C121.68 145.056 121.669 145.028 121.649 145.008L120.549 143.908H121.786C121.814 143.908 121.841 143.897 121.861 143.877C121.881 143.856 121.892 143.829 121.892 143.801C121.891 143.774 121.879 143.748 121.859 143.73C121.839 143.711 121.813 143.701 121.786 143.701Z" fill="#2DD06E"/>
<path d="M126.27 143.701H125.034L126.133 142.602C126.153 142.582 126.164 142.555 126.164 142.527C126.164 142.498 126.153 142.471 126.133 142.451C126.123 142.441 126.112 142.433 126.099 142.427C126.086 142.422 126.072 142.419 126.057 142.419C126.043 142.419 126.029 142.422 126.016 142.427C126.003 142.433 125.992 142.441 125.982 142.451L124.882 143.551V142.312C124.882 142.284 124.871 142.256 124.851 142.236C124.831 142.216 124.804 142.205 124.775 142.205C124.747 142.206 124.72 142.217 124.7 142.237C124.68 142.257 124.669 142.284 124.668 142.312V143.551L123.571 142.444C123.561 142.434 123.549 142.426 123.536 142.421C123.523 142.416 123.509 142.413 123.495 142.413C123.481 142.413 123.467 142.416 123.454 142.421C123.441 142.426 123.429 142.434 123.419 142.444C123.4 142.465 123.389 142.492 123.389 142.52C123.389 142.549 123.4 142.576 123.419 142.596L124.519 143.694H123.281C123.252 143.695 123.226 143.706 123.206 143.726C123.186 143.746 123.174 143.773 123.174 143.801C123.174 143.829 123.185 143.856 123.205 143.877C123.225 143.897 123.252 143.908 123.281 143.908H124.519L123.419 145.008C123.4 145.028 123.389 145.056 123.389 145.084C123.389 145.112 123.4 145.139 123.419 145.16C123.44 145.179 123.467 145.19 123.495 145.19C123.523 145.19 123.55 145.179 123.571 145.16L124.668 144.059V145.296C124.668 145.325 124.68 145.352 124.7 145.372C124.72 145.392 124.747 145.403 124.775 145.403C124.804 145.403 124.831 145.392 124.851 145.372C124.871 145.352 124.882 145.325 124.882 145.296V144.059L125.982 145.16C126.002 145.179 126.029 145.19 126.057 145.19C126.086 145.19 126.113 145.179 126.133 145.16C126.153 145.139 126.164 145.112 126.164 145.084C126.164 145.056 126.153 145.028 126.133 145.008L125.034 143.908H126.27C126.298 143.908 126.325 143.897 126.345 143.877C126.365 143.856 126.377 143.829 126.377 143.801C126.375 143.774 126.363 143.748 126.343 143.73C126.323 143.711 126.297 143.701 126.27 143.701Z" fill="#2DD06E"/>
<path d="M130.752 143.701H129.516L130.616 142.602C130.635 142.582 130.646 142.555 130.646 142.527C130.646 142.498 130.635 142.471 130.616 142.451C130.606 142.441 130.594 142.433 130.581 142.427C130.568 142.422 130.554 142.419 130.54 142.419C130.526 142.419 130.512 142.422 130.499 142.427C130.486 142.433 130.474 142.441 130.464 142.451L129.364 143.551V142.312C129.364 142.284 129.353 142.256 129.333 142.236C129.313 142.216 129.286 142.205 129.258 142.205C129.23 142.206 129.203 142.217 129.183 142.237C129.163 142.257 129.151 142.284 129.151 142.312V143.551L128.053 142.444C128.043 142.434 128.032 142.426 128.019 142.421C128.006 142.416 127.992 142.413 127.978 142.413C127.963 142.413 127.95 142.416 127.937 142.421C127.924 142.426 127.912 142.434 127.902 142.444C127.882 142.465 127.871 142.492 127.871 142.52C127.871 142.549 127.882 142.576 127.902 142.596L129.001 143.694H127.763C127.735 143.695 127.708 143.706 127.688 143.726C127.668 143.746 127.657 143.773 127.656 143.801C127.656 143.829 127.667 143.856 127.688 143.877C127.708 143.897 127.735 143.908 127.763 143.908H129.001L127.902 145.008C127.882 145.028 127.871 145.056 127.871 145.084C127.871 145.112 127.882 145.139 127.902 145.16C127.922 145.179 127.949 145.19 127.978 145.19C128.006 145.19 128.033 145.179 128.053 145.16L129.151 144.059V145.296C129.151 145.325 129.162 145.352 129.182 145.372C129.202 145.392 129.229 145.403 129.258 145.403C129.286 145.403 129.313 145.392 129.333 145.372C129.353 145.352 129.364 145.325 129.364 145.296V144.059L130.464 145.16C130.485 145.179 130.512 145.19 130.54 145.19C130.568 145.19 130.595 145.179 130.616 145.16C130.635 145.139 130.646 145.112 130.646 145.084C130.646 145.056 130.635 145.028 130.616 145.008L129.516 143.908H130.752C130.781 143.908 130.808 143.897 130.828 143.877C130.848 143.856 130.859 143.829 130.859 143.801C130.857 143.774 130.845 143.748 130.826 143.73C130.806 143.711 130.78 143.701 130.752 143.701Z" fill="#2DD06E"/>
<path d="M135.237 143.701H134L135.1 142.602C135.12 142.582 135.131 142.555 135.131 142.527C135.131 142.498 135.12 142.471 135.1 142.451C135.09 142.441 135.078 142.433 135.065 142.427C135.052 142.422 135.038 142.419 135.024 142.419C135.01 142.419 134.996 142.422 134.983 142.427C134.97 142.433 134.958 142.441 134.948 142.451L133.849 143.551V142.312C133.849 142.284 133.838 142.256 133.817 142.236C133.797 142.216 133.77 142.205 133.742 142.205C133.714 142.206 133.687 142.217 133.667 142.237C133.647 142.257 133.636 142.284 133.635 142.312V143.551L132.538 142.444C132.528 142.434 132.516 142.426 132.503 142.421C132.49 142.416 132.476 142.413 132.462 142.413C132.448 142.413 132.434 142.416 132.421 142.421C132.408 142.426 132.396 142.434 132.386 142.444C132.366 142.465 132.355 142.492 132.355 142.52C132.355 142.549 132.366 142.576 132.386 142.596L133.486 143.694H132.247C132.219 143.695 132.192 143.706 132.172 143.726C132.153 143.746 132.141 143.773 132.141 143.801C132.141 143.829 132.152 143.856 132.172 143.877C132.192 143.897 132.219 143.908 132.247 143.908H133.486L132.386 145.008C132.366 145.028 132.355 145.056 132.355 145.084C132.355 145.112 132.366 145.139 132.386 145.16C132.407 145.179 132.434 145.19 132.462 145.19C132.49 145.19 132.517 145.179 132.538 145.16L133.635 144.059V145.296C133.635 145.325 133.646 145.352 133.667 145.372C133.687 145.392 133.714 145.403 133.742 145.403C133.77 145.403 133.797 145.392 133.817 145.372C133.838 145.352 133.849 145.325 133.849 145.296V144.059L134.948 145.16C134.969 145.179 134.996 145.19 135.024 145.19C135.052 145.19 135.079 145.179 135.1 145.16C135.12 145.139 135.131 145.112 135.131 145.084C135.131 145.056 135.12 145.028 135.1 145.008L134 143.908H135.237C135.265 143.908 135.292 143.897 135.312 143.877C135.332 143.856 135.343 143.829 135.343 143.801C135.342 143.774 135.33 143.748 135.31 143.73C135.29 143.711 135.264 143.701 135.237 143.701Z" fill="#2DD06E"/>
<path d="M139.721 143.701H138.485L139.584 142.602C139.604 142.582 139.615 142.555 139.615 142.527C139.615 142.498 139.604 142.471 139.584 142.451C139.574 142.441 139.563 142.433 139.55 142.427C139.537 142.422 139.523 142.419 139.509 142.419C139.494 142.419 139.481 142.422 139.468 142.427C139.454 142.433 139.443 142.441 139.433 142.451L138.333 143.551V142.312C138.333 142.284 138.322 142.256 138.302 142.236C138.282 142.216 138.255 142.205 138.226 142.205C138.198 142.206 138.171 142.217 138.151 142.237C138.132 142.257 138.12 142.284 138.12 142.312V143.551L137.022 142.444C137.012 142.434 137 142.426 136.987 142.421C136.974 142.416 136.96 142.413 136.946 142.413C136.932 142.413 136.918 142.416 136.905 142.421C136.892 142.426 136.88 142.434 136.871 142.444C136.851 142.465 136.84 142.492 136.84 142.52C136.84 142.549 136.851 142.576 136.871 142.596L137.97 143.694H136.732C136.704 143.695 136.677 143.706 136.657 143.726C136.637 143.746 136.626 143.773 136.625 143.801C136.625 143.829 136.636 143.856 136.656 143.877C136.676 143.897 136.703 143.908 136.732 143.908H137.97L136.871 145.008C136.851 145.028 136.84 145.056 136.84 145.084C136.84 145.112 136.851 145.139 136.871 145.16C136.891 145.179 136.918 145.19 136.946 145.19C136.974 145.19 137.002 145.179 137.022 145.16L138.12 144.059V145.296C138.12 145.325 138.131 145.352 138.151 145.372C138.171 145.392 138.198 145.403 138.226 145.403C138.255 145.403 138.282 145.392 138.302 145.372C138.322 145.352 138.333 145.325 138.333 145.296V144.059L139.433 145.16C139.453 145.179 139.48 145.19 139.509 145.19C139.537 145.19 139.564 145.179 139.584 145.16C139.604 145.139 139.615 145.112 139.615 145.084C139.615 145.056 139.604 145.028 139.584 145.008L138.485 143.908H139.721C139.749 143.908 139.776 143.897 139.796 143.877C139.817 143.856 139.828 143.829 139.828 143.801C139.826 143.774 139.814 143.748 139.794 143.73C139.774 143.711 139.748 143.701 139.721 143.701Z" fill="#2DD06E"/>
<path d="M144.203 143.701H142.967L144.067 142.602C144.086 142.582 144.097 142.555 144.097 142.527C144.097 142.498 144.086 142.471 144.067 142.451C144.057 142.441 144.045 142.433 144.032 142.427C144.019 142.422 144.005 142.419 143.991 142.419C143.977 142.419 143.963 142.422 143.95 142.427C143.937 142.433 143.925 142.441 143.915 142.451L142.816 143.551V142.312C142.816 142.284 142.804 142.256 142.784 142.236C142.764 142.216 142.737 142.205 142.709 142.205C142.681 142.206 142.654 142.217 142.634 142.237C142.614 142.257 142.603 142.284 142.602 142.312V143.551L141.505 142.444C141.495 142.434 141.483 142.426 141.47 142.421C141.457 142.416 141.443 142.413 141.429 142.413C141.415 142.413 141.401 142.416 141.388 142.421C141.375 142.426 141.363 142.434 141.353 142.444C141.333 142.465 141.322 142.492 141.322 142.52C141.322 142.549 141.333 142.576 141.353 142.596L142.453 143.694H141.214C141.186 143.695 141.159 143.706 141.139 143.726C141.119 143.746 141.108 143.773 141.107 143.801C141.107 143.829 141.119 143.856 141.139 143.877C141.159 143.897 141.186 143.908 141.214 143.908H142.453L141.353 145.008C141.333 145.028 141.322 145.056 141.322 145.084C141.322 145.112 141.333 145.139 141.353 145.16C141.374 145.179 141.401 145.19 141.429 145.19C141.457 145.19 141.484 145.179 141.505 145.16L142.602 144.059V145.296C142.602 145.325 142.613 145.352 142.633 145.372C142.653 145.392 142.681 145.403 142.709 145.403C142.737 145.403 142.764 145.392 142.784 145.372C142.804 145.352 142.816 145.325 142.816 145.296V144.059L143.915 145.16C143.936 145.179 143.963 145.19 143.991 145.19C144.019 145.19 144.046 145.179 144.067 145.16C144.086 145.139 144.097 145.112 144.097 145.084C144.097 145.056 144.086 145.028 144.067 145.008L142.967 143.908H144.203C144.232 143.908 144.259 143.897 144.279 143.877C144.299 143.856 144.31 143.829 144.31 143.801C144.309 143.774 144.297 143.748 144.277 143.73C144.257 143.711 144.231 143.701 144.203 143.701Z" fill="#2DD06E"/>
<path d="M148.688 143.701H147.452L148.551 142.602C148.571 142.582 148.582 142.555 148.582 142.527C148.582 142.498 148.571 142.471 148.551 142.451C148.541 142.441 148.529 142.433 148.516 142.427C148.503 142.422 148.489 142.419 148.475 142.419C148.461 142.419 148.447 142.422 148.434 142.427C148.421 142.433 148.409 142.441 148.4 142.451L147.3 143.551V142.312C147.3 142.284 147.289 142.256 147.269 142.236C147.249 142.216 147.221 142.205 147.193 142.205C147.165 142.206 147.138 142.217 147.118 142.237C147.098 142.257 147.087 142.284 147.086 142.312V143.551L145.989 142.444C145.979 142.434 145.967 142.426 145.954 142.421C145.941 142.416 145.927 142.413 145.913 142.413C145.899 142.413 145.885 142.416 145.872 142.421C145.859 142.426 145.847 142.434 145.837 142.444C145.818 142.465 145.807 142.492 145.807 142.52C145.807 142.549 145.818 142.576 145.837 142.596L146.937 143.694H145.699C145.67 143.695 145.644 143.706 145.624 143.726C145.604 143.746 145.592 143.773 145.592 143.801C145.592 143.829 145.603 143.856 145.623 143.877C145.643 143.897 145.67 143.908 145.699 143.908H146.937L145.837 145.008C145.818 145.028 145.807 145.056 145.807 145.084C145.807 145.112 145.818 145.139 145.837 145.16C145.858 145.179 145.885 145.19 145.913 145.19C145.941 145.19 145.968 145.179 145.989 145.16L147.086 144.059V145.296C147.086 145.325 147.098 145.352 147.118 145.372C147.138 145.392 147.165 145.403 147.193 145.403C147.221 145.403 147.249 145.392 147.269 145.372C147.289 145.352 147.3 145.325 147.3 145.296V144.059L148.4 145.16C148.42 145.179 148.447 145.19 148.475 145.19C148.503 145.19 148.531 145.179 148.551 145.16C148.571 145.139 148.582 145.112 148.582 145.084C148.582 145.056 148.571 145.028 148.551 145.008L147.452 143.908H148.688C148.716 143.908 148.743 143.897 148.763 143.877C148.783 143.856 148.795 143.829 148.795 143.801C148.793 143.774 148.781 143.748 148.761 143.73C148.741 143.711 148.715 143.701 148.688 143.701Z" fill="#2DD06E"/>
<path d="M153.172 143.701H151.936L153.036 142.602C153.055 142.582 153.066 142.555 153.066 142.527C153.066 142.498 153.055 142.471 153.036 142.451C153.026 142.441 153.014 142.433 153.001 142.427C152.988 142.422 152.974 142.419 152.96 142.419C152.946 142.419 152.932 142.422 152.919 142.427C152.906 142.433 152.894 142.441 152.884 142.451L151.784 143.551V142.312C151.784 142.284 151.773 142.256 151.753 142.236C151.733 142.216 151.706 142.205 151.678 142.205C151.649 142.206 151.623 142.217 151.603 142.237C151.583 142.257 151.571 142.284 151.571 142.312V143.551L150.473 142.444C150.463 142.434 150.452 142.426 150.439 142.421C150.426 142.416 150.412 142.413 150.398 142.413C150.383 142.413 150.369 142.416 150.356 142.421C150.343 142.426 150.332 142.434 150.322 142.444C150.302 142.465 150.291 142.492 150.291 142.52C150.291 142.549 150.302 142.576 150.322 142.596L151.421 143.694H150.183C150.155 143.695 150.128 143.706 150.108 143.726C150.088 143.746 150.077 143.773 150.076 143.801C150.076 143.829 150.087 143.856 150.107 143.877C150.127 143.897 150.155 143.908 150.183 143.908H151.421L150.322 145.008C150.302 145.028 150.291 145.056 150.291 145.084C150.291 145.112 150.302 145.139 150.322 145.16C150.342 145.179 150.369 145.19 150.398 145.19C150.426 145.19 150.453 145.179 150.473 145.16L151.571 144.059V145.296C151.571 145.325 151.582 145.352 151.602 145.372C151.622 145.392 151.649 145.403 151.678 145.403C151.706 145.403 151.733 145.392 151.753 145.372C151.773 145.352 151.784 145.325 151.784 145.296V144.059L152.884 145.16C152.905 145.179 152.932 145.19 152.96 145.19C152.988 145.19 153.015 145.179 153.036 145.16C153.055 145.139 153.066 145.112 153.066 145.084C153.066 145.056 153.055 145.028 153.036 145.008L151.936 143.908H153.172C153.201 143.908 153.228 143.897 153.248 143.877C153.268 143.856 153.279 143.829 153.279 143.801C153.277 143.774 153.265 143.748 153.246 143.73C153.226 143.711 153.199 143.701 153.172 143.701Z" fill="#2DD06E"/>
<path d="M157.657 143.701H156.42L157.52 142.602C157.54 142.582 157.551 142.555 157.551 142.527C157.551 142.498 157.54 142.471 157.52 142.451C157.51 142.441 157.498 142.433 157.485 142.427C157.472 142.422 157.458 142.419 157.444 142.419C157.43 142.419 157.416 142.422 157.403 142.427C157.39 142.433 157.378 142.441 157.368 142.451L156.269 143.551V142.312C156.269 142.284 156.257 142.256 156.237 142.236C156.217 142.216 156.19 142.205 156.162 142.205C156.134 142.206 156.107 142.217 156.087 142.237C156.067 142.257 156.056 142.284 156.055 142.312V143.551L154.958 142.444C154.948 142.434 154.936 142.426 154.923 142.421C154.91 142.416 154.896 142.413 154.882 142.413C154.868 142.413 154.854 142.416 154.841 142.421C154.828 142.426 154.816 142.434 154.806 142.444C154.786 142.465 154.775 142.492 154.775 142.52C154.775 142.549 154.786 142.576 154.806 142.596L155.906 143.694H154.667C154.639 143.695 154.612 143.706 154.592 143.726C154.573 143.746 154.561 143.773 154.561 143.801C154.561 143.829 154.572 143.856 154.592 143.877C154.612 143.897 154.639 143.908 154.667 143.908H155.906L154.806 145.008C154.786 145.028 154.775 145.056 154.775 145.084C154.775 145.112 154.786 145.139 154.806 145.16C154.827 145.179 154.854 145.19 154.882 145.19C154.91 145.19 154.937 145.179 154.958 145.16L156.055 144.059V145.296C156.055 145.325 156.066 145.352 156.086 145.372C156.106 145.392 156.134 145.403 156.162 145.403C156.19 145.403 156.217 145.392 156.237 145.372C156.257 145.352 156.269 145.325 156.269 145.296V144.059L157.368 145.16C157.389 145.179 157.416 145.19 157.444 145.19C157.472 145.19 157.499 145.179 157.52 145.16C157.54 145.139 157.551 145.112 157.551 145.084C157.551 145.056 157.54 145.028 157.52 145.008L156.42 143.908H157.657C157.685 143.908 157.712 143.897 157.732 143.877C157.752 143.856 157.763 143.829 157.763 143.801C157.762 143.774 157.75 143.748 157.73 143.73C157.71 143.711 157.684 143.701 157.657 143.701Z" fill="#2DD06E"/>
<path d="M162.139 143.701H160.903L162.002 142.602C162.022 142.582 162.033 142.555 162.033 142.527C162.033 142.498 162.022 142.471 162.002 142.451C161.992 142.441 161.981 142.433 161.968 142.427C161.955 142.422 161.941 142.419 161.927 142.419C161.912 142.419 161.898 142.422 161.885 142.427C161.872 142.433 161.861 142.441 161.851 142.451L160.751 143.551V142.312C160.751 142.284 160.74 142.256 160.72 142.236C160.7 142.216 160.673 142.205 160.644 142.205C160.616 142.206 160.589 142.217 160.569 142.237C160.55 142.257 160.538 142.284 160.538 142.312V143.551L159.44 142.444C159.43 142.434 159.418 142.426 159.405 142.421C159.392 142.416 159.378 142.413 159.364 142.413C159.35 142.413 159.336 142.416 159.323 142.421C159.31 142.426 159.298 142.434 159.289 142.444C159.269 142.465 159.258 142.492 159.258 142.52C159.258 142.549 159.269 142.576 159.289 142.596L160.388 143.694H159.15C159.122 143.695 159.095 143.706 159.075 143.726C159.055 143.746 159.044 143.773 159.043 143.801C159.043 143.829 159.054 143.856 159.074 143.877C159.094 143.897 159.121 143.908 159.15 143.908H160.388L159.289 145.008C159.269 145.028 159.258 145.056 159.258 145.084C159.258 145.112 159.269 145.139 159.289 145.16C159.309 145.179 159.336 145.19 159.364 145.19C159.392 145.19 159.42 145.179 159.44 145.16L160.538 144.059V145.296C160.538 145.325 160.549 145.352 160.569 145.372C160.589 145.392 160.616 145.403 160.644 145.403C160.673 145.403 160.7 145.392 160.72 145.372C160.74 145.352 160.751 145.325 160.751 145.296V144.059L161.851 145.16C161.871 145.179 161.898 145.19 161.927 145.19C161.955 145.19 161.982 145.179 162.002 145.16C162.022 145.139 162.033 145.112 162.033 145.084C162.033 145.056 162.022 145.028 162.002 145.008L160.903 143.908H162.139C162.167 143.908 162.194 143.897 162.214 143.877C162.234 143.856 162.246 143.829 162.246 143.801C162.244 143.774 162.232 143.748 162.212 143.73C162.192 143.711 162.166 143.701 162.139 143.701Z" fill="#2DD06E"/>
<path d="M196.515 169.69C196.509 169.432 196.477 169.175 196.419 168.923C196.227 168.201 195.793 167.327 195.08 167.109C194.344 166.884 193.633 166.583 192.958 166.212C192.83 163.922 193.355 161.578 192.783 159.358C192.569 158.546 192.217 157.769 192.123 156.938C192.006 155.904 192.287 154.801 191.875 153.849C191.551 153.096 190.838 152.567 190.071 152.289C189.305 152.011 188.478 151.936 187.665 151.862C186.64 151.778 183.322 151.385 182.165 152.302C182.085 152.364 182.013 152.436 181.951 152.515C181.925 152.551 181.903 152.588 181.883 152.626L181.872 152.644C181.849 152.688 181.83 152.735 181.814 152.782C181.798 152.835 181.786 152.888 181.778 152.943C181.778 152.96 181.778 152.977 181.778 152.994C181.778 153.011 181.778 153.069 181.778 153.107V153.165C181.778 153.203 181.778 153.242 181.778 153.282C181.778 153.323 181.778 153.312 181.778 153.327C181.793 153.519 181.821 153.712 181.821 153.902C181.823 153.997 181.814 154.091 181.795 154.184C181.724 154.436 181.604 154.671 181.441 154.876L181.402 154.932C181.379 154.966 181.355 154.998 181.334 155.032C181.313 155.066 181.296 155.092 181.278 155.122C181.261 155.152 181.244 155.171 181.229 155.199C181.209 155.234 181.19 155.27 181.174 155.308C181.174 155.329 181.15 155.348 181.142 155.37C181.115 155.427 181.094 155.487 181.078 155.549C181.028 155.735 181.023 155.93 181.065 156.117C181.122 156.357 181.221 156.585 181.357 156.79C181.411 156.878 181.468 156.963 181.528 157.049L181.678 157.252C181.65 157.45 181.635 157.65 181.633 157.85C181.633 158.519 181.785 159.179 182.077 159.781C182.369 160.383 182.794 160.91 183.32 161.324C183.404 162.226 183.395 163.135 183.292 164.035C183.273 164.223 183.249 164.413 183.224 164.601C183.198 164.789 183.179 164.913 183.153 165.069C182.841 165.114 182.522 165.09 182.22 164.998C182.081 164.936 181.938 164.881 181.793 164.834C181.172 164.678 180.538 165.298 179.923 165.11C179.923 165.139 179.906 165.167 179.895 165.195C179.766 165.115 179.619 165.072 179.468 165.069C179.103 165.052 178.806 164.787 178.541 164.537L177.728 163.77C177.675 163.723 177.627 163.67 177.587 163.612C177.543 163.529 177.51 163.44 177.488 163.349C177.352 162.907 177.021 162.554 176.701 162.219C176.64 162.142 176.559 162.084 176.468 162.05C176.432 162.045 176.396 162.045 176.361 162.05C176.339 162.02 176.316 161.992 176.291 161.965C176.235 161.901 176.176 161.841 176.113 161.785C175.725 161.426 175.686 161.119 175.349 160.717C175.055 160.334 174.788 159.931 174.55 159.51C174.523 159.286 174.484 159.055 174.437 158.822C174.33 158.289 174.173 157.767 173.97 157.262L173.543 156.316L173.494 156.365C173.184 155.904 172.853 155.652 172.556 155.711C172.059 155.814 171.813 156.78 171.892 158.042L172.063 159.324C172.063 159.356 172.078 159.388 172.086 159.42C172.056 159.572 172.04 159.727 172.039 159.882C172.039 160.061 172.206 160.194 172.294 160.354C172.434 160.571 172.508 160.824 172.507 161.082C172.496 161.174 172.469 161.262 172.464 161.352C172.476 161.552 172.546 161.745 172.665 161.907L173.733 163.702L173.946 164.078L173.959 164.095C174.026 164.226 174.125 164.339 174.245 164.424C174.287 164.873 174.406 165.312 174.597 165.721C174.634 165.802 174.674 165.879 174.717 165.956C175.004 166.428 175.342 166.867 175.725 167.265L176.233 167.836C176.735 168.395 177.237 168.957 177.781 169.474C177.976 169.682 178.211 169.847 178.473 169.959C178.601 170.01 178.74 170.027 178.877 170.007C179.013 169.987 179.142 169.932 179.25 169.846C179.25 170.111 179.25 170.376 179.25 170.641C179.329 170.646 179.406 170.672 179.472 170.716C179.538 170.76 179.59 170.821 179.625 170.893C179.659 170.965 179.674 171.044 179.667 171.123C179.661 171.203 179.633 171.279 179.587 171.344C179.139 172.495 178.686 173.657 178.007 174.689C178.487 174.973 178.931 175.312 179.331 175.7C179.591 175.988 179.822 176.3 180.021 176.633C180.04 176.791 180.055 176.947 180.064 177.103C180.222 179.65 179.237 182.177 178.355 184.604C178.101 185.292 177.824 186.012 177.845 186.728C177.678 186.831 177.518 186.946 177.367 187.072C177.542 187.529 177.474 187.937 177.454 188.426C177.448 188.72 177.388 189.009 177.277 189.281C177.184 189.469 177.082 189.652 176.97 189.83C176.417 190.806 176.295 191.966 176.184 193.081C176.118 193.754 176.378 194.577 176.073 195.179C175.545 196.213 175.078 197.316 175.005 198.465C175.003 198.724 174.97 198.981 174.907 199.232C174.841 199.446 174.723 199.627 174.664 199.837C174.602 200.117 174.588 200.406 174.621 200.691C174.662 201.715 174.509 202.738 174.173 203.706C173.906 204.469 173.611 205.285 173.82 206.069C173.305 206.61 172.987 207.309 172.917 208.053C172.912 208.244 172.889 208.433 172.849 208.62C172.783 208.81 172.698 208.993 172.592 209.164C172.163 209.948 171.961 210.836 172.012 211.728C171.371 212.598 171.051 213.67 170.861 214.736C170.671 215.802 170.588 216.887 170.344 217.941C170.02 219.334 169.432 220.742 169.317 222.169C168.625 222.611 168.326 223.468 168.194 224.277C168.062 225.087 168.04 225.937 167.701 226.685C167.526 227.074 167.274 227.422 167.107 227.819C166.99 228.136 166.905 228.463 166.851 228.796C166.748 229.317 166.659 229.898 166.785 230.398C166.604 230.59 166.392 230.751 166.159 230.875C166.193 230.742 166.221 230.61 166.245 230.475C165.694 230.975 164.694 230.8 164.255 231.4C164.123 231.594 164.071 231.831 164.111 232.062C164.151 232.293 164.279 232.499 164.468 232.637C164.606 232.721 164.754 232.785 164.91 232.827C165.978 233.169 167.075 233.513 168.173 233.331C168.302 233.317 168.428 233.277 168.542 233.214C168.685 233.109 168.802 232.973 168.886 232.817C169.05 232.556 169.215 232.295 169.377 232.035C169.77 232.152 170.17 232.245 170.575 232.314C170.615 232.656 170.645 232.998 170.66 233.34C170.874 233.383 171.16 233.395 171.26 233.197C171.291 233.122 171.303 233.04 171.296 232.96C171.296 232.808 171.318 232.607 171.331 232.402H171.373C172.025 232.428 172.673 232.297 173.263 232.02C173.034 230.127 173.788 228.277 174.442 226.486C175.131 224.602 175.723 222.684 176.318 220.765C176.745 219.415 177.217 218.107 177.636 216.755C178.162 215.046 178.691 213.337 179.222 211.628C179.453 210.876 179.686 210.132 179.95 209.384C180.508 207.871 181.169 206.399 181.93 204.977C182.143 204.573 182.357 204.174 182.532 203.755C182.745 203.244 182.897 202.71 183.068 202.183C183.44 201.1 183.888 200.045 184.409 199.025C184.424 198.997 184.434 198.972 184.449 198.946C184.622 199.653 184.795 200.371 184.91 201.082C185.066 201.955 185.079 202.847 184.947 203.723C184.844 204.319 184.65 204.909 184.673 205.513C184.705 206.349 185.152 207.107 185.372 207.912C185.513 208.515 185.594 209.131 185.611 209.75C185.671 210.711 186.192 211.79 185.824 212.681C184.682 215.503 185.235 218.691 184.584 221.654C184.248 223.175 183.221 224.604 183.303 226.159C183.36 227.263 183.456 228.364 183.593 229.462C183.626 229.809 183.716 230.147 183.86 230.464C183.945 230.631 184.043 230.791 184.152 230.943C184.058 230.979 183.979 231.075 183.911 231.278C183.736 231.812 183.911 232.475 184.385 232.774C184.578 232.877 184.787 232.949 185.002 232.987C185.293 233.07 185.593 233.112 185.895 233.111C185.989 233.106 186.082 233.095 186.174 233.077C186.504 233.216 186.842 233.337 187.184 233.44C187.184 233.528 187.201 233.616 187.212 233.703C187.213 233.749 187.223 233.794 187.242 233.836C187.261 233.877 187.289 233.914 187.323 233.945C187.376 233.969 187.435 233.98 187.494 233.974H188.653C188.653 233.878 188.653 233.78 188.653 233.684C188.786 233.698 188.92 233.684 189.047 233.642C189.174 233.601 189.291 233.534 189.39 233.445C189.493 233.314 189.566 233.162 189.604 233C189.92 231.928 190.233 230.855 190.545 229.781C190.919 228.594 191.075 227.349 191.004 226.106C190.592 222.169 191.497 218.218 191.203 214.27C191.025 211.897 191.147 209.511 191.566 207.169C191.662 206.639 191.779 206.101 191.822 205.573C191.916 204.577 191.801 203.571 191.871 202.582C191.895 202.236 191.942 201.892 191.984 201.548C192.277 199.413 192.43 197.262 192.443 195.107C192.437 194.393 192.393 193.68 192.311 192.97C192.534 192.914 192.736 192.795 192.894 192.629C193.084 192.381 193.035 192.033 193.033 191.716C193.033 190.96 193.351 190.246 193.607 189.533C193.936 188.549 194.205 187.546 194.414 186.529C194.635 185.71 194.755 184.867 194.773 184.019C194.773 183.933 194.769 183.848 194.76 183.762C194.841 183.707 194.908 183.634 194.956 183.549C195.012 183.424 195.047 183.29 195.059 183.154C195.136 182.609 195.215 182.062 195.292 181.515C195.349 181.123 195.405 180.732 195.46 180.342L196.139 175.601C196.197 175.189 196.257 174.779 196.314 174.369L196.492 173.142C196.511 172.997 196.532 172.852 196.547 172.715C197.068 171.843 196.571 170.681 196.515 169.69ZM190.851 187.439C190.599 186.841 190.364 186.228 190.423 185.583H190.4C190.456 185.384 190.446 185.173 190.372 184.98C190.306 184.824 190.191 184.692 190.12 184.536C190.045 184.345 190.005 184.143 190.005 183.938C189.952 182.638 190.054 181.337 190.31 180.062C190.338 179.913 190.368 179.761 190.396 179.611C190.485 179.56 190.567 179.496 190.639 179.421C190.751 179.293 190.844 179.149 190.915 178.994C191.156 178.509 191.376 178.016 191.579 177.513C191.645 177.351 191.741 177.163 191.905 177.123C191.871 178.372 191.999 179.648 191.491 180.776C191.395 180.958 191.323 181.152 191.278 181.353C191.231 181.671 191.363 181.994 191.316 182.31C191.292 182.474 191.222 182.626 191.194 182.788C191.173 182.868 191.174 182.952 191.195 183.031C191.217 183.111 191.259 183.183 191.318 183.241C191.346 183.261 191.377 183.277 191.41 183.288C191.397 183.374 191.386 183.461 191.378 183.545C191.361 183.72 191.352 183.884 191.342 183.987C191.292 184.509 191.273 185.034 191.284 185.559C191.284 186.125 191.305 186.691 191.297 187.268C191.305 187.434 191.277 187.599 191.216 187.753C191.173 187.833 191.119 187.905 191.053 187.967C190.991 187.775 190.923 187.606 190.851 187.439Z" fill="url(#paint0_linear_1092_10188)"/>
<path d="M173.996 162.65C174.648 162.517 174.869 160.912 174.491 159.066C174.113 157.22 173.279 155.832 172.627 155.965C171.975 156.099 171.754 157.704 172.132 159.55C172.51 161.396 173.344 162.784 173.996 162.65Z" fill="#FBBEBE"/>
<path d="M183.945 231.319C183.77 231.849 183.945 232.511 184.419 232.799C184.611 232.902 184.818 232.974 185.032 233.013C185.322 233.095 185.622 233.136 185.923 233.135C186.292 233.118 186.646 232.973 187.016 232.921C187.058 232.911 187.104 232.917 187.142 232.938C187.16 232.958 187.174 232.982 187.182 233.008C187.19 233.034 187.193 233.061 187.189 233.088C187.193 233.298 187.208 233.508 187.236 233.716C187.236 233.762 187.246 233.807 187.265 233.849C187.284 233.89 187.312 233.927 187.347 233.957C187.4 233.982 187.459 233.993 187.518 233.987H188.675C188.701 232.97 188.59 231.954 188.344 230.966C188.328 230.891 188.299 230.819 188.258 230.753C188.16 230.645 188.031 230.571 187.889 230.539C187.606 230.421 187.301 230.368 186.994 230.383C186.621 230.432 186.309 230.674 185.991 230.875C185.673 231.075 185.239 231.253 184.853 231.15C184.466 231.048 184.144 230.725 183.945 231.319Z" fill="#3F3D56"/>
<path d="M166.953 230.381C166.628 230.73 166.229 231.001 165.785 231.176L165.589 231.27C165.561 231.28 165.538 231.299 165.522 231.323C165.519 231.34 165.519 231.357 165.522 231.374C165.526 231.39 165.533 231.406 165.544 231.419C165.707 231.672 165.949 231.865 166.232 231.968C166.515 232.071 166.823 232.078 167.111 231.99C167.238 231.958 167.356 231.896 167.455 231.81C167.618 231.617 167.711 231.375 167.72 231.122C167.784 230.862 167.773 230.588 167.687 230.334C167.391 229.665 167.282 229.969 166.953 230.381Z" fill="#FBBEBE"/>
<path d="M171.389 233.013C171.395 233.094 171.383 233.175 171.352 233.25C171.252 233.447 170.972 233.436 170.755 233.393C170.722 232.668 170.634 231.947 170.492 231.235C170.078 231.216 169.779 231.609 169.557 231.962L168.985 232.87C168.902 233.026 168.785 233.162 168.643 233.267C168.528 233.33 168.403 233.37 168.273 233.385C167.18 233.566 166.076 233.222 165.022 232.88C164.866 232.839 164.717 232.775 164.58 232.692C164.391 232.554 164.264 232.348 164.224 232.118C164.184 231.888 164.235 231.651 164.366 231.458C164.808 230.859 165.801 231.03 166.352 230.535C166.294 230.883 166.2 231.225 166.07 231.554C166.807 231.443 167.302 230.768 167.896 230.317C168.045 230.19 168.224 230.105 168.417 230.069C168.56 230.057 168.705 230.072 168.844 230.114C169.528 230.286 170.168 230.602 170.723 231.039C170.947 231.216 171.297 231.466 171.395 231.74C171.5 232.066 171.389 232.665 171.389 233.013Z" fill="#3F3D56"/>
<path d="M186.079 162.524C188.516 162.524 190.491 160.548 190.491 158.111C190.491 155.673 188.516 153.697 186.079 153.697C183.643 153.697 181.668 155.673 181.668 158.111C181.668 160.548 183.643 162.524 186.079 162.524Z" fill="#FBBEBE"/>
<path d="M194.767 184.17C194.75 185.014 194.63 185.853 194.411 186.668C194.202 187.68 193.933 188.679 193.604 189.659C193.35 190.37 193.032 191.084 193.034 191.838C193.034 192.152 193.085 192.5 192.893 192.748C192.722 192.922 192.506 193.045 192.269 193.105C192.151 193.136 192.042 193.195 191.951 193.276C191.86 193.357 191.789 193.459 191.744 193.573C191.544 193.273 191.394 192.942 191.3 192.594C190.917 191.421 190.561 190.241 190.232 189.054C190.202 188.986 190.189 188.911 190.194 188.837C190.2 188.762 190.223 188.69 190.262 188.627C190.316 188.58 190.38 188.544 190.448 188.522C190.667 188.433 190.867 188.304 191.039 188.142C191.12 188.07 191.187 187.984 191.236 187.888C191.298 187.735 191.326 187.57 191.319 187.405C191.319 186.839 191.319 186.275 191.304 185.709C191.295 185.186 191.315 184.663 191.364 184.143C191.364 184.04 191.383 183.875 191.4 183.7C191.432 183.365 191.496 182.976 191.678 182.846C191.949 182.664 192.76 182.908 193.068 182.95C193.597 183.023 194.135 183.109 194.652 183.209C194.727 183.524 194.766 183.847 194.767 184.17Z" fill="#3F3D56"/>
<path d="M176.956 163.052C176.785 163.394 176.375 163.558 176.059 163.774L174.977 164.518C174.904 164.583 174.819 164.633 174.727 164.664C174.635 164.696 174.538 164.708 174.441 164.701C174.352 164.669 174.272 164.619 174.203 164.555C174.135 164.491 174.08 164.413 174.041 164.327C174.042 164.322 174.042 164.316 174.041 164.31L173.817 163.934L172.749 162.144C172.631 161.984 172.562 161.792 172.551 161.593C172.551 161.501 172.583 161.416 172.591 161.324C172.594 161.066 172.52 160.813 172.378 160.597C172.293 160.437 172.122 160.305 172.126 160.125C172.118 159.889 172.159 159.654 172.246 159.435C172.358 159.232 172.518 159.06 172.713 158.935C172.814 158.863 172.916 158.794 173.023 158.722C173.079 158.683 173.142 158.654 173.209 158.636C173.386 158.6 173.561 158.747 173.74 158.754C174.511 159.271 174.808 160.249 175.414 160.954C175.756 161.356 175.79 161.663 176.176 162.022C176.238 162.078 176.298 162.138 176.356 162.2C176.432 162.283 176.497 162.376 176.548 162.477C176.618 162.661 177.043 162.877 176.956 163.052Z" fill="#3F3D56"/>
<path d="M184.528 162.527C184.846 163.199 185.093 163.939 185.002 164.678C184.983 164.878 184.919 165.072 184.816 165.244C184.508 165.716 183.864 165.802 183.302 165.829C183.184 165.819 183.065 165.833 182.952 165.87C182.839 165.907 182.734 165.965 182.644 166.043C182.569 166.152 182.533 166.283 182.54 166.415C182.547 166.548 182.598 166.674 182.685 166.774C182.865 166.966 183.089 167.113 183.338 167.201C184.227 167.592 185.185 167.915 186.15 167.825C186.599 167.782 187.034 167.652 187.481 167.586C187.967 167.533 188.456 167.506 188.945 167.504C189.526 167.483 190.105 167.425 190.683 167.368L192.217 167.216C192.3 167.217 192.382 167.187 192.445 167.133C192.558 167 192.413 166.806 192.272 166.705C191.459 166.103 190.423 165.688 189.96 164.783C189.746 164.355 189.68 163.847 189.522 163.385C189.364 162.924 189.112 162.507 189.014 162.037C188.961 161.625 188.938 161.21 188.943 160.794C188.949 160.375 188.796 159.969 188.516 159.657C188.211 159.373 187.769 159.301 187.355 159.283C186.334 159.239 185.247 159.482 184.523 160.202C184.329 160.397 184.163 160.629 183.962 160.805C183.761 160.98 183.488 161.031 183.62 161.262C183.753 161.493 184.013 161.636 184.154 161.839C184.297 162.058 184.422 162.288 184.528 162.527Z" fill="#FBBEBE"/>
<path d="M193.224 168.741C192.955 170.386 192.517 171.999 191.917 173.555C191.616 174.257 191.359 174.978 191.149 175.712C190.984 176.375 191.016 177.084 190.865 177.748C190.677 178.575 190.489 179.404 190.337 180.237C190.083 181.51 189.981 182.808 190.034 184.104C190.035 184.308 190.074 184.511 190.149 184.7C190.22 184.854 190.333 184.986 190.399 185.145C190.449 185.283 190.469 185.431 190.459 185.578C190.448 185.725 190.408 185.869 190.339 185.999C190.23 186.244 190.081 186.469 189.9 186.666C187.91 187.26 185.781 187.065 183.707 187.191C181.796 187.307 179.864 187.7 177.981 187.373C177.767 186.518 178.124 185.623 178.429 184.79C179.315 182.369 180.295 179.848 180.137 177.312C180.121 177.017 180.087 176.722 180.037 176.43C179.727 174.633 180.065 172.773 180.605 171.031C180.94 169.946 180.925 168.79 180.848 167.66C180.81 167.293 180.805 166.924 180.834 166.556C180.864 166.18 181.004 165.821 181.235 165.524C181.235 165.509 181.254 165.494 181.265 165.479C181.275 165.464 181.359 165.466 181.425 165.479C181.442 165.486 181.46 165.49 181.478 165.49C181.497 165.49 181.515 165.486 181.532 165.479L181.555 165.464C181.564 165.458 181.575 165.454 181.586 165.454C181.597 165.454 181.608 165.458 181.617 165.464C181.666 165.494 181.694 165.596 181.801 165.616C181.958 165.64 182.117 165.655 182.277 165.661C182.469 165.666 182.659 165.693 182.845 165.742H182.87C183.148 165.789 183.433 165.764 183.699 165.671C183.876 165.627 184.047 165.561 184.207 165.475C184.254 165.423 184.549 165.376 184.609 165.34C184.803 165.223 184.76 164.671 184.801 164.445C184.823 164.218 184.877 163.995 184.961 163.783C185.058 163.626 185.192 163.496 185.352 163.403C185.511 163.31 185.691 163.258 185.875 163.251C186.242 163.242 186.61 163.275 186.97 163.349C187.766 163.462 188.582 163.443 189.364 163.627C189.757 163.719 190.186 163.857 190.547 163.678C190.645 163.701 190.66 163.787 190.66 163.892C190.65 163.991 190.63 164.089 190.6 164.184C190.463 164.774 190.927 165.317 191.354 165.744C191.534 165.945 191.747 166.115 191.984 166.246C192.197 166.344 192.411 166.385 192.624 166.492C192.797 166.584 192.944 166.718 193.051 166.883C193.174 167.071 193.257 167.282 193.295 167.504C193.34 167.918 193.317 168.336 193.224 168.741Z" fill="#3F3D56"/>
<path opacity="0.1" d="M193.224 168.741C192.955 170.386 192.517 171.999 191.918 173.555C191.616 174.257 191.36 174.978 191.149 175.712C190.985 176.375 191.017 177.084 190.865 177.748C190.677 178.575 190.489 179.404 190.338 180.237C190.293 180.263 190.246 180.286 190.199 180.308C189.933 180.435 189.652 180.525 189.362 180.577C188.841 180.64 188.314 180.623 187.799 180.526L184.752 180.118C183.535 179.953 182.239 179.754 181.336 178.93C180.834 178.477 180.505 177.879 180.144 177.302C180.128 177.006 180.094 176.712 180.044 176.42C179.734 174.623 180.072 172.762 180.612 171.021C180.947 169.936 180.932 168.78 180.855 167.65C180.817 167.283 180.812 166.913 180.84 166.545C180.871 166.169 181.011 165.811 181.242 165.513C181.304 165.495 181.368 165.481 181.432 165.47C181.475 165.462 181.518 165.456 181.562 165.453H181.624C181.696 165.454 181.768 165.462 181.837 165.479C181.983 165.525 182.126 165.58 182.264 165.644H182.29C182.473 165.704 182.665 165.731 182.858 165.725C183.14 165.725 183.43 165.68 183.712 165.661C184.06 165.606 184.417 165.67 184.724 165.842C184.923 166.002 185.111 166.174 185.288 166.357C185.502 166.525 185.742 166.656 185.999 166.744C187.837 167.446 189.876 167.403 191.683 166.624C191.856 166.525 192.053 166.475 192.253 166.479C192.4 166.508 192.54 166.567 192.663 166.654C192.791 166.729 192.917 166.801 193.047 166.868C193.17 167.056 193.253 167.268 193.291 167.489C193.34 167.907 193.317 168.331 193.224 168.741Z" fill="black"/>
<path d="M195.085 167.327C194.234 167.067 193.417 166.709 192.65 166.259C192.527 166.173 192.388 166.113 192.241 166.084C192.04 166.081 191.843 166.131 191.668 166.229C189.862 167.008 187.824 167.05 185.987 166.349C185.73 166.26 185.49 166.129 185.276 165.962C185.098 165.779 184.91 165.607 184.712 165.447C184.009 164.992 183.038 165.526 182.252 165.233C182.113 165.171 181.97 165.116 181.825 165.069C181.204 164.913 180.572 165.533 179.961 165.344C179.734 165.962 179.566 166.6 179.459 167.25C179.372 167.996 179.326 168.747 179.32 169.498C179.32 169.948 179.299 170.399 179.32 170.85C179.396 170.862 179.468 170.89 179.532 170.932C179.595 170.973 179.65 171.028 179.692 171.091C179.72 171.166 179.731 171.246 179.726 171.325C179.72 171.404 179.697 171.481 179.658 171.551C179.212 172.698 178.759 173.858 178.082 174.886C178.559 175.17 179.002 175.508 179.402 175.894C180.149 176.685 180.516 177.793 181.323 178.524C182.233 179.347 183.529 179.547 184.74 179.71L187.786 180.118C188.303 180.214 188.83 180.232 189.352 180.171C189.641 180.118 189.922 180.027 190.186 179.9C190.36 179.827 190.517 179.723 190.652 179.592C190.765 179.464 190.857 179.32 190.927 179.165C191.169 178.682 191.389 178.189 191.591 177.689C191.662 177.511 191.769 177.304 191.961 177.289C193.092 176.268 194.16 175.221 195.292 174.2C195.746 173.823 196.154 173.392 196.507 172.918C197.068 172.087 196.558 170.91 196.507 169.906C196.5 169.649 196.468 169.393 196.411 169.143C196.227 168.415 195.796 167.543 195.085 167.327Z" fill="#2DD06E"/>
<path opacity="0.1" d="M176.955 163.052C176.784 163.394 176.374 163.558 176.058 163.774L174.976 164.517C174.904 164.583 174.819 164.633 174.727 164.664C174.635 164.696 174.537 164.708 174.44 164.701C174.352 164.669 174.271 164.619 174.203 164.555C174.134 164.49 174.079 164.413 174.041 164.327C174.041 164.278 174.041 164.225 174.041 164.174C174.032 164.001 174.056 163.828 174.109 163.663C174.215 163.421 174.379 163.21 174.587 163.048C174.989 162.667 175.467 162.376 175.99 162.193C176.072 162.161 176.16 162.153 176.246 162.167C176.28 162.176 176.311 162.19 176.34 162.208C176.417 162.291 176.481 162.385 176.532 162.486C176.618 162.661 177.043 162.877 176.955 163.052Z" fill="black"/>
<path d="M179.506 165.304C179.143 165.287 178.846 165.024 178.581 164.774L177.772 164.022C177.718 163.976 177.67 163.923 177.631 163.864C177.587 163.781 177.554 163.692 177.533 163.601C177.361 163.169 177.092 162.783 176.747 162.473C176.687 162.396 176.606 162.339 176.514 162.306C176.427 162.29 176.338 162.299 176.256 162.332C175.733 162.514 175.255 162.805 174.853 163.187C174.645 163.349 174.481 163.56 174.375 163.802C174.321 163.966 174.298 164.139 174.306 164.312C174.311 164.877 174.438 165.434 174.678 165.945C174.714 166.024 174.755 166.103 174.797 166.18C175.082 166.651 175.419 167.089 175.801 167.485L176.309 168.053C176.809 168.613 177.308 169.173 177.851 169.688C178.045 169.895 178.281 170.06 178.543 170.17C178.674 170.224 178.818 170.241 178.958 170.218C179.098 170.195 179.229 170.135 179.337 170.042C179.439 169.924 179.516 169.786 179.563 169.636C179.892 168.782 180.204 167.893 180.223 166.972C180.228 166.604 180.212 166.235 180.176 165.868C180.144 165.479 179.869 165.327 179.506 165.304Z" fill="#2DD06E"/>
<path d="M192.445 195.213C192.433 197.363 192.28 199.509 191.988 201.638C191.946 201.982 191.899 202.326 191.875 202.67C191.805 203.667 191.92 204.669 191.826 205.661C191.777 206.197 191.666 206.729 191.572 207.252C191.155 209.588 191.033 211.968 191.209 214.334C191.504 218.272 190.601 222.211 191.011 226.138C191.06 226.902 191.018 227.668 190.885 228.422C190.808 228.889 190.698 229.351 190.554 229.802C190.242 230.872 189.929 231.94 189.614 233.007C189.577 233.169 189.504 233.321 189.401 233.451C189.292 233.545 189.164 233.615 189.026 233.656C188.888 233.697 188.743 233.708 188.6 233.688C187.368 233.65 186.209 233.118 185.09 232.598C184.961 232.548 184.842 232.475 184.737 232.385C184.505 232.143 184.524 231.763 184.421 231.445C184.319 231.127 184.041 230.827 183.883 230.501C183.753 230.191 183.675 229.863 183.651 229.528C183.508 228.435 183.411 227.337 183.36 226.234C183.279 224.683 184.304 223.256 184.641 221.748C185.282 218.782 184.739 215.603 185.878 212.79C186.236 211.901 185.715 210.824 185.664 209.867C185.646 209.25 185.565 208.636 185.425 208.034C185.211 207.231 184.761 206.474 184.729 205.641C184.705 205.039 184.9 204.451 185 203.857C185.133 202.983 185.121 202.093 184.964 201.223C184.851 200.505 184.678 199.788 184.505 199.087L184.466 199.166C183.946 200.183 183.499 201.236 183.127 202.317C182.957 202.84 182.807 203.375 182.594 203.883C182.419 204.31 182.203 204.701 181.991 205.103C181.233 206.519 180.573 207.986 180.016 209.493C179.752 210.232 179.519 210.989 179.288 211.73L177.706 216.857C177.279 218.206 176.812 219.509 176.393 220.855C175.802 222.777 175.21 224.683 174.523 226.563C173.882 228.347 173.12 230.195 173.348 232.079C172.76 232.356 172.113 232.487 171.463 232.462C170.362 232.364 169.283 232.102 168.26 231.684C167.852 231.532 167.429 231.361 167.154 231.026C166.68 230.447 166.797 229.599 166.941 228.862C166.994 228.53 167.08 228.203 167.197 227.888C167.359 227.495 167.624 227.146 167.79 226.758C168.126 226.012 168.147 225.168 168.279 224.358C168.412 223.549 168.706 222.694 169.398 222.254C169.516 220.831 170.101 219.428 170.423 218.037C170.666 216.983 170.748 215.9 170.94 214.832C171.132 213.764 171.442 212.696 172.086 211.83C172.035 210.938 172.237 210.05 172.667 209.267C172.771 209.095 172.856 208.912 172.921 208.722C172.961 208.536 172.984 208.348 172.99 208.158C173.06 207.416 173.377 206.718 173.891 206.178C173.677 205.398 173.974 204.584 174.241 203.827C174.577 202.862 174.729 201.843 174.689 200.822C174.656 200.536 174.67 200.248 174.73 199.967C174.789 199.753 174.907 199.572 174.975 199.367C175.036 199.115 175.068 198.858 175.071 198.6C175.155 197.444 175.622 196.354 176.139 195.322C176.446 194.72 176.186 193.902 176.25 193.231C176.361 192.116 176.483 190.962 177.036 189.99C177.138 189.806 177.249 189.631 177.341 189.441C177.452 189.169 177.512 188.88 177.518 188.586C177.537 188.097 177.606 187.691 177.431 187.236C178.573 186.285 180.132 186.018 181.618 185.954C183.104 185.89 184.607 186.025 186.061 185.709C186.488 185.612 186.915 185.48 187.366 185.416C188.389 185.266 189.426 185.499 190.436 185.73C190.366 186.371 190.601 186.986 190.863 187.582C191.889 189.997 192.426 192.59 192.445 195.213Z" fill="#33313F"/>
<path opacity="0.1" d="M187.416 195.703L184.962 201.223C184.849 200.506 184.676 199.788 184.503 199.087L184.465 199.166V199.051L185.801 196.109L187.416 195.703Z" fill="black"/>
<path opacity="0.1" d="M194.769 184.17C194.627 184.276 194.458 184.339 194.282 184.352C194.012 184.361 193.742 184.325 193.483 184.243L191.562 183.762C191.502 183.747 191.443 183.727 191.387 183.7C191.419 183.365 191.483 182.976 191.664 182.846C191.935 182.664 192.747 182.908 193.054 182.95C193.584 183.023 194.122 183.109 194.639 183.209C194.719 183.523 194.762 183.846 194.769 184.17Z" fill="black"/>
<path d="M196.394 171.459C196.434 171.636 196.492 171.811 196.526 171.991C196.584 172.431 196.568 172.878 196.481 173.313L196.306 174.535L196.131 175.764L195.454 180.492L195.288 181.662L195.053 183.297C195.042 183.433 195.007 183.566 194.95 183.69C194.88 183.806 194.783 183.903 194.666 183.972C194.549 184.041 194.417 184.08 194.282 184.085C194.012 184.094 193.742 184.057 193.483 183.976L191.562 183.493C191.478 183.478 191.398 183.445 191.327 183.397C191.268 183.34 191.226 183.268 191.204 183.188C191.182 183.109 191.182 183.026 191.203 182.946C191.231 182.784 191.301 182.632 191.325 182.47C191.372 182.154 191.239 181.829 191.286 181.515C191.332 181.315 191.404 181.122 191.5 180.94C192.14 179.524 191.769 177.87 191.987 176.332C192.183 175.121 192.694 173.984 193.469 173.033C193.947 172.434 194.496 171.894 195.104 171.427C195.343 171.241 195.723 170.859 196.024 170.786C196.411 170.705 196.33 171.19 196.394 171.459Z" fill="#2DD06E"/>
<path d="M181.85 153.056C181.709 153.505 181.929 153.998 181.828 154.455C181.719 154.959 181.245 155.31 181.111 155.816C180.897 156.587 181.551 157.29 182.029 157.931C183.801 160.311 183.568 163.606 182.962 166.509C182.474 168.838 181.799 171.125 180.944 173.345C180.677 174.035 180.383 174.736 179.857 175.253C180.84 174.971 181.884 174.687 182.868 174.961C184.115 175.307 185.191 176.518 186.455 176.242C187.215 176.074 187.749 175.398 188.432 175.025C189.713 174.335 191.257 174.768 192.686 174.99C192.993 175.063 193.316 175.047 193.614 174.943C193.843 174.821 194.037 174.642 194.178 174.424C194.816 173.606 195.197 172.617 195.276 171.583C195.309 171.068 195.233 170.551 195.053 170.068C194.872 169.584 194.591 169.144 194.227 168.778C193.924 168.491 193.561 168.261 193.328 167.923C193.102 167.529 192.981 167.083 192.976 166.629C192.807 164.278 193.38 161.879 192.79 159.606C192.577 158.796 192.229 158.021 192.135 157.192C192.017 156.16 192.297 155.056 191.887 154.111C191.565 153.361 190.854 152.829 190.087 152.556C189.321 152.283 188.501 152.206 187.687 152.129C186.517 152.03 182.339 151.528 181.85 153.056Z" fill="#33313F"/>
<g opacity="0.1">
<path opacity="0.1" d="M182.962 166.509C182.477 168.829 181.805 171.106 180.955 173.318C181.102 173.025 181.226 172.717 181.344 172.412C182.2 170.191 182.875 167.905 183.361 165.575C183.97 162.67 184.203 159.38 182.43 156.998C182.003 156.429 181.455 155.814 181.474 155.147C181.316 155.349 181.193 155.576 181.111 155.818C180.897 156.59 181.551 157.292 182.029 157.933C183.801 160.311 183.569 163.605 182.962 166.509Z" fill="black"/>
<path opacity="0.1" d="M181.855 154.239C182.026 154.027 182.154 153.782 182.231 153.519C182.264 153.202 182.255 152.882 182.205 152.567C182.041 152.691 181.917 152.861 181.851 153.056C181.725 153.434 181.87 153.844 181.855 154.239Z" fill="black"/>
<path opacity="0.1" d="M194.58 173.484C194.438 173.701 194.244 173.879 194.016 174.001C193.717 174.107 193.395 174.123 193.087 174.048C191.659 173.834 190.098 173.394 188.834 174.084C188.148 174.456 187.617 175.131 186.854 175.302C185.593 175.584 184.516 174.373 183.269 174.02C182.386 173.775 181.455 173.978 180.564 174.234C180.387 174.611 180.148 174.957 179.857 175.255C180.84 174.973 181.884 174.689 182.868 174.962C184.115 175.309 185.191 176.52 186.455 176.244C187.215 176.075 187.749 175.4 188.432 175.026C189.714 174.336 191.257 174.77 192.686 174.992C192.994 175.065 193.316 175.049 193.615 174.945C193.843 174.822 194.037 174.644 194.178 174.426C194.565 173.915 194.864 173.344 195.062 172.734C194.92 172.995 194.758 173.246 194.58 173.484Z" fill="black"/>
</g>
</g>
<defs>
<linearGradient id="paint0_linear_1092_10188" x1="164.111" y1="192.838" x2="196.78" y2="192.838" gradientUnits="userSpaceOnUse">
<stop stop-color="#808080" stop-opacity="0.25"/>
<stop offset="0.54" stop-color="#808080" stop-opacity="0.12"/>
<stop offset="1" stop-color="#808080" stop-opacity="0.1"/>
</linearGradient>
<clipPath id="clip0_1092_10188">
<rect width="200" height="200" fill="white" transform="translate(141)"/>
</clipPath>
<clipPath id="clip1_1092_10188">
<rect width="249" height="172" fill="white" transform="translate(0 62)"/>
</clipPath>
</defs>
</svg>
